<?xml version="1.0" encoding="UTF-8" standalone="no"?>
<svg
   xmlns:dc="http://purl.org/dc/elements/1.1/"
   xmlns:cc="http://creativecommons.org/ns#"
   xmlns:rdf="http://www.w3.org/1999/02/22-rdf-syntax-ns#"
   xmlns:svg="http://www.w3.org/2000/svg"
   xmlns="http://www.w3.org/2000/svg"
   xmlns:sodipodi="http://sodipodi.sourceforge.net/DTD/sodipodi-0.dtd"
   xmlns:inkscape="http://www.inkscape.org/namespaces/inkscape"
   width="899.36914pt"
   height="557.50037pt"
   version="1.1"
   viewBox="0 0 899.36913 557.50037"
   id="svg2054"
   sodipodi:docname="foRESTlogo.svg"
   inkscape:version="1.0.2-2 (e86c870879, 2021-01-15)">
  <metadata
     id="metadata2058">
    <rdf:RDF>
      <cc:Work
         rdf:about="">
        <dc:format>image/svg+xml</dc:format>
        <dc:type
           rdf:resource="http://purl.org/dc/dcmitype/StillImage" />
        <dc:title></dc:title>
      </cc:Work>
    </rdf:RDF>
  </metadata>
  <sodipodi:namedview
     pagecolor="#ffffff"
     bordercolor="#666666"
     borderopacity="1"
     objecttolerance="10"
     gridtolerance="10"
     guidetolerance="10"
     inkscape:pageopacity="0"
     inkscape:pageshadow="2"
     inkscape:window-width="1920"
     inkscape:window-height="1051"
     id="namedview2056"
     showgrid="false"
     inkscape:zoom="0.64472986"
     inkscape:cx="469.52435"
     inkscape:cy="273.17351"
     inkscape:window-x="-9"
     inkscape:window-y="-9"
     inkscape:window-maximized="1"
     inkscape:current-layer="svg2054"
     fit-margin-top="0"
     fit-margin-left="0"
     fit-margin-right="0"
     fit-margin-bottom="0" />
  <defs
     id="defs1934">
    <rect
       x="537.43439"
       y="410.63708"
       width="345.49353"
       height="138.43007"
       id="rect5221" />
    <rect
       x="537.43439"
       y="417.61676"
       width="258.24771"
       height="101.20518"
       id="rect5215" />
    <rect
       x="530.45471"
       y="387.37155"
       width="447.862"
       height="130.28712"
       id="rect5209" />
    <symbol
       id="u"
       overflow="visible">
      <path
         d="M 19.547,-1.1719 C 18.5353,-0.64846 17.4845,-0.25784 16.3908,0 15.297,0.26953 14.1564,0.40625 12.9689,0.40625 c -3.543,0 -6.3516,-0.98828 -8.4219,-2.9688 -2.0625,-1.9766 -3.0938,-4.6602 -3.0938,-8.0469 0,-3.4062 1.0312,-6.0977 3.0938,-8.0781 2.0703,-1.9766 4.8789,-2.9688 8.4219,-2.9688 1.1875,0 2.3281,0.13672 3.4219,0.40625 1.0938,0.26172 2.1445,0.65625 3.1562,1.1875 v 4.3906 c -1.0234,-0.6875 -2.0273,-1.1914 -3.0156,-1.5156 -0.98047,-0.32031 -2.0156,-0.48438 -3.1094,-0.48438 -1.9609,0 -3.5,0.625 -4.625,1.875 -1.1172,1.25 -1.6719,2.9805 -1.6719,5.1875 0,2.1875 0.55469,3.9141 1.6719,5.1719 1.125,1.25 2.6641,1.875 4.625,1.875 1.0938,0 2.1289,-0.16016 3.1094,-0.48438 0.98828,-0.32031 1.9922,-0.82812 3.0156,-1.5156 z"
         id="path1871" />
    </symbol>
    <symbol
       id="c"
       overflow="visible">
      <path
         d="m 14.297,-11.609 c -0.44922,-0.20703 -0.89062,-0.35938 -1.3281,-0.45312 -0.4375,-0.10156 -0.88281,-0.15625 -1.3281,-0.15625 -1.3125,0 -2.3242,0.42188 -3.0312,1.2656 -0.71094,0.83594 -1.0625,2.0391 -1.0625,3.6094 V 4.3e-4 H 2.4533 v -15.953 h 5.0938 v 2.625 c 0.65625,-1.0508 1.4062,-1.8164 2.25,-2.2969 0.85156,-0.47656 1.875,-0.71875 3.0625,-0.71875 0.17578,0 0.36328,0.01172 0.5625,0.03125 0.19531,0.01172 0.48438,0.04297 0.85938,0.09375 z"
         id="path1874" />
    </symbol>
    <symbol
       id="b"
       overflow="visible">
      <path
         d="m 18.375,-8.0156 v 1.4531 H 6.453 c 0.125,1.1992 0.55469,2.0938 1.2969,2.6875 0.73828,0.59375 1.7734,0.89062 3.1094,0.89062 1.0703,0 2.1719,-0.15625 3.2969,-0.46875 1.125,-0.32031 2.2812,-0.80469 3.4688,-1.4531 v 3.9375 c -1.2109,0.46094 -2.418,0.80469 -3.625,1.0312 -1.2109,0.22656 -2.4141,0.34375 -3.6094,0.34375 -2.8984,0 -5.1484,-0.72656 -6.75,-2.1875 -1.5938,-1.4688 -2.3906,-3.5312 -2.3906,-6.1875 0,-2.5938 0.78516,-4.6328 2.3594,-6.125 1.5703,-1.5 3.7344,-2.25 6.4844,-2.25 2.5078,0 4.5156,0.75781 6.0156,2.2656 1.5078,1.5117 2.2656,3.5312 2.2656,6.0625 z m -5.2344,-1.7031 c 0,-0.96875 -0.28906,-1.75 -0.85938,-2.3438 -0.5625,-0.59375 -1.2969,-0.89062 -2.2031,-0.89062 -0.99219,0 -1.7969,0.28125 -2.4219,0.84375 -0.61719,0.55469 -0.99609,1.3516 -1.1406,2.3906 z"
         id="path1877" />
    </symbol>
    <symbol
       id="j"
       overflow="visible">
      <path
         d="m 9.5938,-7.1719 c -1.0625,0 -1.8672,0.18359 -2.4062,0.54688 -0.53125,0.35547 -0.79688,0.88281 -0.79688,1.5781 0,0.64844 0.21094,1.1523 0.64062,1.5156 0.4375,0.36719 1.0391,0.54688 1.8125,0.54688 0.95703,0 1.7656,-0.34375 2.4219,-1.0312 0.6563,-0.68745 0.98438,-1.5469 0.98438,-2.5781 v -0.57812 z m 7.7969,-1.9375 V 0 H 12.2501 V -2.3594 C 11.5626,-1.39065 10.7892,-0.6875 9.9376,-0.25 9.08213,0.1875 8.047,0.40625 6.8282,0.40625 c -1.6562,0 -3,-0.47656 -4.0312,-1.4375 C 1.7658,-2 1.2501,-3.25005 1.2501,-4.78125 c 0,-1.875 0.64062,-3.25 1.9219,-4.125 1.2891,-0.875 3.3164,-1.3125 6.0781,-1.3125 h 3 v -0.39062 c 0,-0.8125 -0.32031,-1.4062 -0.95312,-1.7812 -0.63672,-0.375 -1.6328,-0.5625 -2.9844,-0.5625 -1.0859,0 -2.1016,0.10938 -3.0469,0.32812 -0.9375,0.21875 -1.8086,0.54688 -2.6094,0.98438 v -3.8906 c 1.082,-0.25781 2.1758,-0.45703 3.2812,-0.59375 1.1016,-0.14453 2.207,-0.21875 3.3125,-0.21875 2.875,0 4.9453,0.57031 6.2188,1.7031 1.2812,1.1367 1.9219,2.9805 1.9219,5.5312 z"
         id="path1880" />
    </symbol>
    <symbol
       id="d"
       overflow="visible">
      <path
         d="m 8.0156,-20.484 v 4.5312 h 5.2656 v 3.6406 H 8.0156 v 6.7656 c 0,0.74219 0.14453,1.2461 0.4375,1.5156 0.30078,0.26172 0.89062,0.39062 1.7656,0.39062 h 2.6094 V 2.2e-4 H 8.4687 c -2.0234,0 -3.4531,-0.41406 -4.2969,-1.25 -0.83594,-0.84375 -1.25,-2.2734 -1.25,-4.2969 v -6.7656 H 0.3906 v -3.6406 h 2.5312 v -4.5312 z"
         id="path1883" />
    </symbol>
    <symbol
       id="i"
       overflow="visible">
      <path
         d="m 13.297,-13.625 v -8.5312 h 5.1406 V -2e-4 H 13.297 v -2.3125 c -0.69922,0.94922 -1.4688,1.6406 -2.3125,2.0781 -0.84375,0.42578 -1.8242,0.64062 -2.9375,0.64062 -1.9688,0 -3.5859,-0.77344 -4.8438,-2.3281 -1.2617,-1.5625 -1.8906,-3.5781 -1.8906,-6.0469 0,-2.457 0.62891,-4.4688 1.8906,-6.0312 1.2578,-1.5625 2.875,-2.3438 4.8438,-2.3438 1.1016,0 2.0781,0.22656 2.9219,0.67188 0.85156,0.4375 1.6289,1.1211 2.3281,2.0469 z M 9.9376,-3.297 c 1.0938,0 1.9258,-0.39453 2.5,-1.1875 0.57031,-0.80078 0.85938,-1.9609 0.85938,-3.4844 0,-1.5078 -0.28906,-2.6641 -0.85938,-3.4688 -0.57422,-0.80078 -1.4062,-1.2031 -2.5,-1.2031 -1.0859,0 -1.9141,0.40234 -2.4844,1.2031 -0.57422,0.80469 -0.85938,1.9609 -0.85938,3.4688 0,1.5234 0.28516,2.6836 0.85938,3.4844 0.57031,0.79297 1.3984,1.1875 2.4844,1.1875 z"
         id="path1886" />
    </symbol>
    <symbol
       id="g"
       overflow="visible">
      <path
         d="m 10.938,-3.2969 c 1.0938,0 1.9258,-0.39453 2.5,-1.1875 0.57031,-0.80078 0.85938,-1.9609 0.85938,-3.4844 0,-1.5078 -0.28906,-2.6641 -0.85938,-3.4688 -0.57422,-0.80078 -1.4062,-1.2031 -2.5,-1.2031 -1.0938,0 -1.9336,0.40234 -2.5156,1.2031 -0.58594,0.80469 -0.875,1.9609 -0.875,3.4688 0,1.5117 0.28906,2.668 0.875,3.4688 0.58203,0.80469 1.4219,1.2031 2.5156,1.2031 z m -3.3906,-10.328 c 0.70703,-0.92578 1.4883,-1.6094 2.3438,-2.0469 0.85156,-0.44531 1.832,-0.67188 2.9375,-0.67188 1.9688,0 3.582,0.78125 4.8438,2.3438 1.2695,1.5625 1.9062,3.5742 1.9062,6.0312 0,2.4688 -0.63672,4.4844 -1.9062,6.0469 -1.2617,1.5547 -2.875,2.3281 -4.8438,2.3281 -1.1055,0 -2.0859,-0.21875 -2.9375,-0.65625 -0.85547,-0.4375 -1.6367,-1.125 -2.3438,-2.0625 V 7e-5 H 2.4536 v -22.156 h 5.0938 z"
         id="path1889" />
    </symbol>
    <symbol
       id="f"
       overflow="visible">
      <path
         d="m 0.35938,-15.953 h 5.0938 l 4.2969,10.828 3.6406,-10.828 h 5.0938 L 11.78138,1.516 C 11.10169,3.2855 10.31658,4.5238 9.42198,5.2348 8.52354,5.94183 7.34388,6.2973 5.87508,6.2973 H 2.92198 V 2.9535 h 1.5938 c 0.86328,0 1.4922,-0.14062 1.8906,-0.42188 C 6.80091,2.25818 7.1095,1.766 7.32826,1.04722 l 0.14062,-0.4375 z"
         id="path1892" />
    </symbol>
    <symbol
       id="e"
       overflow="visible">
      <path
         d="m 2.6719,-21.266 h 9.1094 c 2.707,0 4.7852,0.60547 6.2344,1.8125 1.4453,1.1992 2.1719,2.9062 2.1719,5.125 0,2.2305 -0.72656,3.9492 -2.1719,5.1562 -1.4492,1.1992 -3.5273,1.7969 -6.2344,1.7969 H 8.1563 V -4e-4 H 2.6719 Z m 5.4844,3.9688 v 5.9375 h 3.0469 c 1.0625,0 1.8789,-0.25391 2.4531,-0.76562 0.58203,-0.51953 0.875,-1.2539 0.875,-2.2031 0,-0.94531 -0.29297,-1.6758 -0.875,-2.1875 -0.57422,-0.51953 -1.3906,-0.78125 -2.4531,-0.78125 z"
         id="path1895" />
    </symbol>
    <symbol
       id="a"
       overflow="visible">
      <path
         d="m 10.047,-12.688 c -1.1367,0 -2,0.40625 -2.5938,1.2188 -0.5938,0.81255 -0.89062,1.9805 -0.89062,3.5 0,1.5312 0.29688,2.7031 0.89062,3.5156 0.59374,0.8125 1.457,1.2188 2.5938,1.2188 1.1016,0 1.9453,-0.40625 2.5312,-1.2188 0.59375,-0.8125 0.89062,-1.9844 0.89062,-3.5156 0,-1.5195 -0.29688,-2.6875 -0.89062,-3.5 -0.58594,-0.8125 -1.4297,-1.2188 -2.5312,-1.2188 z m 0,-3.6562 c 2.7383,0 4.8789,0.74609 6.4219,2.2344 1.5391,1.4805 2.3125,3.5273 2.3125,6.1406 0,2.625 -0.77344,4.6797 -2.3125,6.1562 -1.543,1.4805 -3.6836,2.2188 -6.4219,2.2188 -2.7617,0 -4.918,-0.73828 -6.4688,-2.2188 -1.5547,-1.4766 -2.3281,-3.5312 -2.3281,-6.1562 0,-2.6133 0.77344,-4.6602 2.3281,-6.1406 1.5508,-1.4883 3.707,-2.2344 6.4688,-2.2344 z"
         id="path1898" />
    </symbol>
    <symbol
       id="t"
       overflow="visible">
      <path
         d="m 17.484,-20.594 v 4.5 c -1.1797,-0.51953 -2.3242,-0.91016 -3.4375,-1.1719 -1.1055,-0.26953 -2.1523,-0.40625 -3.1406,-0.40625 -1.3125,0 -2.2812,0.18359 -2.9062,0.54688 -0.625,0.35547 -0.9375,0.91406 -0.9375,1.6719 0,0.57422 0.20703,1.0234 0.625,1.3438 0.42578,0.3125 1.1953,0.58594 2.3125,0.8125 l 2.3281,0.46875 c 2.3633,0.46875 4.0469,1.1875 5.0469,2.1562 1,0.9687 1.5,2.3516 1.5,4.1406 0,2.3438 -0.69922,4.0898 -2.0938,5.2344 -1.3867,1.1367 -3.5117,1.7031 -6.375,1.7031 -1.3438,0 -2.6992,-0.13281 -4.0625,-0.39062 -1.3555,-0.25 -2.7109,-0.625 -4.0625,-1.125 v -4.625 c 1.3516,0.71875 2.6641,1.2617 3.9375,1.625 1.2695,0.36719 2.4922,0.54688 3.6719,0.54688 1.1953,0 2.1133,-0.19531 2.75,-0.59375 0.63281,-0.39453 0.95312,-0.96875 0.95312,-1.7188 0,-0.65625 -0.21875,-1.1641 -0.65625,-1.5312 -0.42969,-0.36328 -1.2891,-0.6875 -2.5781,-0.96875 l -2.125,-0.46875 c -2.125,-0.45703 -3.6836,-1.1797 -4.6719,-2.1719 -0.98047,-1 -1.4688,-2.3477 -1.4688,-4.0469 0,-2.1133 0.67969,-3.7383 2.0469,-4.875 1.375,-1.1445 3.3438,-1.7188 5.9062,-1.7188 1.1641,0 2.3633,0.08984 3.5938,0.26562 1.2383,0.17969 2.5195,0.44531 3.8438,0.79688 z"
         id="path1901" />
    </symbol>
    <symbol
       id="h"
       overflow="visible">
      <path
         d="m 17.234,-13.297 c 0.64453,-0.98828 1.4102,-1.7422 2.2969,-2.2656 0.89453,-0.51953 1.875,-0.78125 2.9375,-0.78125 1.832,0 3.2266,0.57031 4.1875,1.7031 0.95703,1.125 1.4375,2.7656 1.4375,4.9219 V -5e-5 h -5.125 v -8.3125 -0.39062 c 0.0078,-0.13281 0.01563,-0.32031 0.01563,-0.5625 0,-1.1328 -0.16797,-1.9531 -0.5,-2.4531 -0.32422,-0.50781 -0.85938,-0.76562 -1.6094,-0.76562 -0.96875,0 -1.7188,0.40234 -2.25,1.2031 -0.52344,0.79297 -0.79297,1.9453 -0.8125,3.4531 V -9e-5 h -5.125 v -8.3125 c 0,-1.7695 -0.15234,-2.9062 -0.45312,-3.4062 -0.30469,-0.50781 -0.84375,-0.76562 -1.625,-0.76562 -0.98047,0 -1.7344,0.40234 -2.2656,1.2031 -0.53125,0.80469 -0.79688,1.9492 -0.79688,3.4375 V -1e-5 h -5.125 v -15.953 h 5.125 v 2.3281 c 0.625,-0.89453 1.3438,-1.5703 2.1562,-2.0312 0.8125,-0.45703 1.707,-0.6875 2.6875,-0.6875 1.1016,0 2.0781,0.26562 2.9219,0.79688 0.8438,0.53126 1.4844,1.2812 1.9219,2.25 z"
         id="path1904" />
    </symbol>
    <symbol
       id="s"
       overflow="visible">
      <path
         d="M 2.4531,-22.156 H 7.5469 V 0 H 2.4531 Z"
         id="path1907" />
    </symbol>
    <symbol
       id="r"
       overflow="visible">
      <path
         d="m 14.906,-15.453 v 3.875 c -1.0859,-0.45703 -2.1367,-0.80078 -3.1562,-1.0312 -1.0117,-0.22656 -1.9688,-0.34375 -2.875,-0.34375 -0.96875,0 -1.6875,0.125 -2.1562,0.375 -0.46875,0.24219 -0.70312,0.60938 -0.70312,1.1094 0,0.40625 0.17578,0.71875 0.53125,0.9375 0.35156,0.21875 0.99219,0.38281 1.9219,0.48438 l 0.89062,0.14062 c 2.6133,0.32422 4.3672,0.86719 5.2656,1.625 0.90625,0.76172 1.3594,1.9531 1.3594,3.5781 0,1.6992 -0.63281,2.9766 -1.8906,3.8281 -1.25,0.85547 -3.1211,1.2812 -5.6094,1.2812 -1.0547,0 -2.1406,-0.085938 -3.2656,-0.25 -1.125,-0.15625 -2.2812,-0.39844 -3.4688,-0.73438 v -3.875 c 1.0195,0.49219 2.0625,0.85938 3.125,1.1094 1.0703,0.24219 2.1602,0.35938 3.2656,0.35938 0.98828,0 1.7344,-0.13281 2.2344,-0.40625 0.50781,-0.26953 0.76562,-0.67578 0.76562,-1.2188 0,-0.45703 -0.17969,-0.79688 -0.53125,-1.0156 -0.34375,-0.22656 -1.0312,-0.40625 -2.0625,-0.53125 L 7.6561,-6.26553 c -2.2734,-0.28125 -3.8672,-0.80469 -4.7812,-1.5781 -0.90625,-0.76953 -1.3594,-1.9414 -1.3594,-3.5156 0,-1.6875 0.57812,-2.9375 1.7344,-3.75 1.1562,-0.82031 2.9297,-1.2344 5.3281,-1.2344 0.9375,0 1.9219,0.07422 2.9531,0.21875 1.0391,0.14844 2.1641,0.37109 3.375,0.67188 z"
         id="path1910" />
    </symbol>
    <symbol
       id="q"
       overflow="visible">
      <path
         d="m 12.953,-22.156 v 3.3438 h -2.8281 c -0.71875,0 -1.2266,0.13281 -1.5156,0.39062 -0.28125,0.26172 -0.42188,0.71484 -0.42188,1.3594 v 1.1094 h 4.3594 v 3.6406 h -4.3594 v 12.312 h -5.0938 v -12.312 h -2.5312 v -3.6406 h 2.5312 v -1.1094 c 0,-1.7383 0.48438,-3.0195 1.4531,-3.8438 0.96875,-0.83203 2.4688,-1.25 4.5,-1.25 z"
         id="path1913" />
    </symbol>
    <symbol
       id="p"
       overflow="visible">
      <path
         d="M 18.484,-9.7188 V 0 h -5.125 v -7.4062 c 0,-1.3945 -0.03125,-2.3516 -0.09375,-2.875 -0.0625,-0.51953 -0.16797,-0.90625 -0.3125,-1.1562 -0.19922,-0.33203 -0.46875,-0.58594 -0.8125,-0.76562 -0.34375,-0.1875 -0.73438,-0.28125 -1.1719,-0.28125 -1.0625,0 -1.9023,0.41406 -2.5156,1.2344 -0.60547,0.8125 -0.90625,1.9492 -0.90625,3.4062 V 1.3e-4 H 2.4527 v -22.156 h 5.0938 v 8.5312 c 0.76953,-0.92578 1.5859,-1.6094 2.4531,-2.0469 0.86328,-0.44531 1.8164,-0.67188 2.8594,-0.67188 1.8438,0 3.2383,0.57031 4.1875,1.7031 0.95703,1.125 1.4375,2.7656 1.4375,4.9219 z"
         id="path1916" />
    </symbol>
    <symbol
       id="o"
       overflow="visible">
      <path
         d="m 2.6719,-21.266 h 6.125 l 7.7344,14.578 v -14.578 h 5.2031 V 0 h -6.125 L 7.875,-14.594 V 0 H 2.6719 Z"
         id="path1919" />
    </symbol>
    <symbol
       id="n"
       overflow="visible">
      <path
         d="m 2.2812,-6.2031 v -9.75 h 5.125 v 1.5938 c 0,0.86719 -0.00781,1.9531 -0.015625,3.2656 -0.011719,1.3047 -0.015625,2.1719 -0.015625,2.6094 0,1.2812 0.03125,2.2031 0.09375,2.7656 0.070312,0.5625 0.1875,0.97656 0.34375,1.2344 0.21875,0.33594 0.49219,0.58984 0.82812,0.76562 0.33203,0.17969 0.71875,0.26562 1.1562,0.26562 1.0625,0 1.8945,-0.40625 2.5,-1.2188 0.61328,-0.8125 0.92188,-1.9453 0.92188,-3.4062 v -7.875 h 5.0938 V -6e-5 h -5.0938 v -2.3125 c -0.77344,0.9375 -1.5898,1.625 -2.4531,2.0625 -0.85547,0.4375 -1.7969,0.65625 -2.8281,0.65625 -1.8438,0 -3.25,-0.5625 -4.2188,-1.6875 -0.96094,-1.1328 -1.4375,-2.7734 -1.4375,-4.9219 z"
         id="path1922" />
    </symbol>
    <symbol
       id="m"
       overflow="visible">
      <path
         d="M 18.484,-9.7188 V 0 h -5.125 v -7.4375 c 0,-1.375 -0.03125,-2.3203 -0.09375,-2.8438 -0.0625,-0.51953 -0.16797,-0.90625 -0.3125,-1.1562 -0.19922,-0.33203 -0.46875,-0.58594 -0.8125,-0.76562 -0.34375,-0.1875 -0.73438,-0.28125 -1.1719,-0.28125 -1.0625,0 -1.9023,0.41406 -2.5156,1.2344 -0.60547,0.8125 -0.90625,1.9492 -0.90625,3.4062 V 3e-5 H 2.4527 v -15.953 h 5.0938 v 2.3281 c 0.76953,-0.92578 1.5859,-1.6094 2.4531,-2.0469 0.86328,-0.44531 1.8164,-0.67188 2.8594,-0.67188 1.8438,0 3.2383,0.57031 4.1875,1.7031 0.95703,1.125 1.4375,2.7656 1.4375,4.9219 z"
         id="path1925" />
    </symbol>
    <symbol
       id="l"
       overflow="visible">
      <path
         d="M 2.4531,-15.953 H 7.5469 V -0.281 C 7.5469,1.8518 7.03128,3.4846 6,4.6096 4.9766,5.7346 3.4922,6.2971 1.5469,6.2971 H -0.9687 V 2.9533 h 0.89062 c 0.96875,0 1.6289,-0.21875 1.9844,-0.65625 0.36328,-0.4375 0.54688,-1.2969 0.54688,-2.5781 z m 0,-6.2031 h 5.0938 v 4.1562 H 2.4531 Z"
         id="path1928" />
    </symbol>
    <symbol
       id="k"
       overflow="visible">
      <path
         d="m 15.344,-15.453 v 4.1562 c -0.69922,-0.46875 -1.3984,-0.81641 -2.0938,-1.0469 -0.69922,-0.22656 -1.4219,-0.34375 -2.1719,-0.34375 -1.4297,0 -2.5391,0.41797 -3.3281,1.25 -0.79297,0.82422 -1.1875,1.9805 -1.1875,3.4688 0,1.5 0.39453,2.668 1.1875,3.5 0.78906,0.82422 1.8984,1.2344 3.3281,1.2344 0.80078,0 1.5547,-0.11719 2.2656,-0.35938 0.71875,-0.23828 1.3828,-0.58594 2,-1.0469 v 4.1719 c -0.80469,0.29297 -1.6172,0.50781 -2.4375,0.65625 -0.8125,0.14453 -1.6367,0.21875 -2.4688,0.21875 -2.875,0 -5.125,-0.73438 -6.75,-2.2031 -1.625,-1.4766 -2.4375,-3.5352 -2.4375,-6.1719 0,-2.625 0.8125,-4.6758 2.4375,-6.1562 1.625,-1.4766 3.875,-2.2188 6.75,-2.2188 0.83203,0 1.6562,0.07813 2.4688,0.23438 0.8125,0.14844 1.625,0.36719 2.4375,0.65625 z"
         id="path1931" />
    </symbol>
    <symbol
       id="w"
       overflow="visible">
      <path
         d="m 18.766,-1.125 c -0.96875,0.5 -1.9805,0.875 -3.0312,1.125 -1.043,0.25781 -2.1367,0.39062 -3.2812,0.39062 -3.3984,0 -6.0898,-0.94531 -8.0781,-2.8438 -1.9922,-1.9062 -2.9844,-4.4844 -2.9844,-7.7344 0,-3.2578 0.99219,-5.8359 2.9844,-7.7344 1.9883,-1.9062 4.6797,-2.8594 8.0781,-2.8594 1.1445,0 2.2383,0.13281 3.2812,0.39062 1.0508,0.25 2.0625,0.625 3.0312,1.125 v 4.2188 c -0.98047,-0.65625 -1.9453,-1.1406 -2.8906,-1.4531 -0.94922,-0.3125 -1.9492,-0.46875 -3,-0.46875 -1.875,0 -3.3516,0.60547 -4.4219,1.8125 -1.0742,1.1992 -1.6094,2.8555 -1.6094,4.9688 0,2.1055 0.53516,3.7617 1.6094,4.9688 1.0703,1.1992 2.5469,1.7969 4.4219,1.7969 1.0508,0 2.0508,-0.14844 3,-0.45312 0.94531,-0.3125 1.9102,-0.80078 2.8906,-1.4688 z"
         id="path3488" />
    </symbol>
    <symbol
       id="d-5"
       overflow="visible">
      <path
         d="m 13.734,-11.141 c -0.4375,-0.19531 -0.87109,-0.34375 -1.2969,-0.4375 -0.41797,-0.10156 -0.83984,-0.15625 -1.2656,-0.15625 -1.2617,0 -2.2305,0.40625 -2.9062,1.2188 -0.67969,0.80469 -1.0156,1.9531 -1.0156,3.4531 v 7.0625 H 2.3591 v -15.312 h 4.8906 v 2.5156 c 0.625,-1 1.3438,-1.7266 2.1562,-2.1875 0.82031,-0.46875 1.8008,-0.70312 2.9375,-0.70312 0.16406,0 0.34375,0.01172 0.53125,0.03125 0.19531,0.01172 0.47656,0.03906 0.84375,0.07813 z"
         id="path3491" />
    </symbol>
    <symbol
       id="b-3"
       overflow="visible">
      <path
         d="m 17.641,-7.7031 v 1.4062 H 6.188 c 0.125,1.1484 0.53906,2.0078 1.25,2.5781 0.70703,0.57422 1.7031,0.85938 2.9844,0.85938 1.0312,0 2.082,-0.14844 3.1562,-0.45312 1.082,-0.3125 2.1914,-0.77344 3.3281,-1.3906 v 3.7656 c -1.1562,0.4375 -2.3125,0.76562 -3.4688,0.98438 -1.1562,0.22656 -2.3125,0.34375 -3.4688,0.34375 -2.7734,0 -4.9297,-0.70312 -6.4688,-2.1094 -1.5312,-1.4062 -2.2969,-3.3789 -2.2969,-5.9219 0,-2.5 0.75391,-4.4609 2.2656,-5.8906 1.5078,-1.4375 3.582,-2.1562 6.2188,-2.1562 2.4062,0 4.332,0.73047 5.7812,2.1875 1.4453,1.4492 2.1719,3.3828 2.1719,5.7969 z m -5.0312,-1.625 c 0,-0.92578 -0.27344,-1.6719 -0.8125,-2.2344 -0.54297,-0.57031 -1.25,-0.85938 -2.125,-0.85938 -0.94922,0 -1.7188,0.26562 -2.3125,0.79688 -0.5937,0.53126 -0.96484,1.2969 -1.1094,2.2969 z"
         id="path3494" />
    </symbol>
    <symbol
       id="j-6"
       overflow="visible">
      <path
         d="m 9.2188,-6.8906 c -1.0234,0 -1.793,0.17188 -2.3125,0.51562 -0.51172,0.34375 -0.76562,0.85547 -0.76562,1.5312 0,0.625 0.20703,1.1172 0.625,1.4688 0.41406,0.34375 0.98828,0.51562 1.7188,0.51562 0.92578,0 1.7031,-0.32812 2.3281,-0.98438 0.63281,-0.66406 0.95312,-1.4922 0.95312,-2.4844 v -0.5625 z m 7.4688,-1.8438 V 0 h -4.9219 v -2.2656 c -0.65625,0.92969 -1.3984,1.6055 -2.2188,2.0312 -0.82422,0.41406 -1.8242,0.625 -3,0.625 -1.5859,0 -2.8711,-0.45703 -3.8594,-1.375 -0.99219,-0.92578 -1.4844,-2.1289 -1.4844,-3.6094 0,-1.7891 0.61328,-3.1016 1.8438,-3.9375 1.2383,-0.84375 3.1797,-1.2656 5.8281,-1.2656 h 2.8906 v -0.39062 c 0,-0.76953 -0.30859,-1.332 -0.92188,-1.6875 -0.61719,-0.36328 -1.5703,-0.54688 -2.8594,-0.54688 -1.0547,0 -2.0312,0.10547 -2.9375,0.3125 -0.89844,0.21094 -1.7305,0.52344 -2.5,0.9375 v -3.7344 c 1.0391,-0.25 2.0859,-0.44141 3.1406,-0.57812 1.0625,-0.13281 2.125,-0.20312 3.1875,-0.20312 2.7578,0 4.75,0.54688 5.9688,1.6406 1.2266,1.0859 1.8438,2.8555 1.8438,5.3125 z"
         id="path3497" />
    </symbol>
    <symbol
       id="c-8"
       overflow="visible">
      <path
         d="m 7.7031,-19.656 v 4.3438 H 12.75 v 3.5 H 7.7031 v 6.5 c 0,0.71094 0.14062,1.1875 0.42188,1.4375 0.28126,0.25 0.83594,0.375 1.6719,0.375 h 2.5156 v 3.5 h -4.1875 c -1.9375,0 -3.3125,-0.39844 -4.125,-1.2031 -0.80469,-0.8125 -1.2031,-2.1797 -1.2031,-4.1094 v -6.5 h -2.4219 v -3.5 h 2.4219 v -4.3438 z"
         id="path3500" />
    </symbol>
    <symbol
       id="i-3"
       overflow="visible">
      <path
         d="m 12.766,-13.078 v -8.2031 h 4.9219 V -1e-4 H 12.766 v -2.2188 c -0.66797,0.90625 -1.4062,1.5703 -2.2188,1.9844 -0.8126,0.4141 -1.7578,0.625 -2.8281,0.625 -1.8867,0 -3.4336,-0.75 -4.6406,-2.25 -1.2109,-1.5 -1.8125,-3.4258 -1.8125,-5.7812 0,-2.3633 0.60156,-4.2969 1.8125,-5.7969 1.207,-1.5 2.7539,-2.25 4.6406,-2.25 1.0625,0 2,0.21484 2.8125,0.64062 0.82031,0.42969 1.5664,1.0859 2.2344,1.9688 z m -3.2188,9.9219 c 1.0391,0 1.8359,-0.37891 2.3906,-1.1406 0.55078,-0.76953 0.82812,-1.8828 0.82812,-3.3438 0,-1.457 -0.27734,-2.5664 -0.82812,-3.3281 -0.55469,-0.76953 -1.3516,-1.1562 -2.3906,-1.1562 -1.043,0 -1.8398,0.38672 -2.3906,1.1562 -0.55469,0.76172 -0.82812,1.8711 -0.82812,3.3281 0,1.4609 0.27344,2.5742 0.82812,3.3438 0.55078,0.76172 1.3477,1.1406 2.3906,1.1406 z"
         id="path3503" />
    </symbol>
    <symbol
       id="f-4"
       overflow="visible">
      <path
         d="m 10.5,-3.1562 c 1.0508,0 1.8516,-0.37891 2.4062,-1.1406 0.55078,-0.76953 0.82812,-1.8828 0.82812,-3.3438 0,-1.457 -0.27734,-2.5664 -0.82812,-3.3281 -0.55469,-0.76953 -1.3555,-1.1562 -2.4062,-1.1562 -1.0547,0 -1.8594,0.38672 -2.4219,1.1562 -0.55469,0.77344 -0.82812,1.8828 -0.82812,3.3281 0,1.4492 0.27344,2.5586 0.82812,3.3281 0.5625,0.77344 1.3672,1.1562 2.4219,1.1562 z m -3.25,-9.9219 c 0.67578,-0.88281 1.4219,-1.5391 2.2344,-1.9688 0.82031,-0.42578 1.7656,-0.64062 2.8281,-0.64062 1.8945,0 3.4453,0.75 4.6562,2.25 1.207,1.5 1.8125,3.4336 1.8125,5.7969 0,2.3555 -0.60547,4.2812 -1.8125,5.7812 -1.2109,1.5 -2.7617,2.25 -4.6562,2.25 -1.0625,0 -2.0078,-0.21094 -2.8281,-0.625 C 8.6719,-0.6602 7.9258,-1.32032 7.25,-2.21882 V -2e-5 H 2.3594 v -21.281 H 7.25 Z"
         id="path3506" />
    </symbol>
    <symbol
       id="e-0"
       overflow="visible">
      <path
         d="m 0.34375,-15.312 h 4.8906 l 4.125,10.391 3.5,-10.391 h 4.8906 l -6.4375,16.766 c -0.64844,1.6953 -1.4023,2.8828 -2.2656,3.5625 -0.86719,0.6875 -2,1.0312 -3.4062,1.0312 H 2.79685 V 2.8289 h 1.5312 c 0.83203,0 1.4375,-0.13672 1.8125,-0.40625 C 6.52336,2.16093 6.82024,1.69218 7.03117,1.01645 L 7.17179,0.59457 Z"
         id="path3509" />
    </symbol>
    <symbol
       id="h-5"
       overflow="visible">
      <path
         d="m 16.781,-19.766 v 4.3125 c -1.125,-0.5 -2.2266,-0.875 -3.2969,-1.125 -1.0625,-0.25781 -2.0703,-0.39062 -3.0156,-0.39062 -1.25,0 -2.1797,0.17969 -2.7812,0.53125 -0.60547,0.34375 -0.90625,0.88281 -0.90625,1.6094 0,0.54297 0.20312,0.96875 0.60938,1.2812 0.40625,0.30469 1.1406,0.5625 2.2031,0.78125 l 2.25,0.45312 c 2.2695,0.44922 3.8789,1.1406 4.8281,2.0781 0.95703,0.92969 1.4375,2.2461 1.4375,3.9531 0,2.25 -0.66797,3.9297 -2,5.0312 -1.3359,1.0938 -3.3711,1.6406 -6.1094,1.6406 -1.3047,0 -2.6055,-0.125 -3.9062,-0.375 -1.3047,-0.23828 -2.6055,-0.59766 -3.9062,-1.0781 v -4.4531 c 1.3008,0.69922 2.5625,1.2266 3.7812,1.5781 1.2188,0.34375 2.3906,0.51562 3.5156,0.51562 1.1562,0 2.0352,-0.1875 2.6406,-0.5625 0.61328,-0.38281 0.92188,-0.9375 0.92188,-1.6562 0,-0.63281 -0.21094,-1.125 -0.625,-1.4688 -0.41797,-0.34375 -1.2461,-0.65625 -2.4844,-0.9375 l -2.0312,-0.4375 c -2.043,-0.4375 -3.5391,-1.1328 -4.4844,-2.0938 -0.9375,-0.95703 -1.4062,-2.25 -1.4062,-3.875 0,-2.0312 0.65625,-3.5938 1.9688,-4.6875 1.31255,-1.0937 3.1953,-1.6406 5.6562,-1.6406 1.125,0 2.2734,0.08594 3.4531,0.25 1.1875,0.16797 2.4141,0.42188 3.6875,0.76562 z"
         id="path3512" />
    </symbol>
    <symbol
       id="a-6"
       overflow="visible">
      <path
         d="m 9.6406,-12.188 c -1.0859,0 -1.9141,0.39062 -2.4844,1.1719 -0.57422,0.78125 -0.85938,1.9062 -0.85938,3.375 0,1.4688 0.28516,2.5938 0.85938,3.375 0.57031,0.77344 1.3984,1.1562 2.4844,1.1562 1.0625,0 1.875,-0.38281 2.4375,-1.1562 0.57031,-0.78125 0.85938,-1.9062 0.85938,-3.375 0,-1.4688 -0.28906,-2.5938 -0.85938,-3.375 -0.5625,-0.78125 -1.375,-1.1719 -2.4375,-1.1719 z m 0,-3.5 c 2.6328,0 4.6914,0.71484 6.1719,2.1406 1.4766,1.418 2.2188,3.3867 2.2188,5.9062 0,2.5117 -0.74219,4.4805 -2.2188,5.9062 C 14.332,-0.317 12.2734,0.39 9.6406,0.39 6.9922,0.39 4.9258,-0.31703 3.4375,-1.735 1.9453,-3.1608 1.2031,-5.1295 1.2031,-7.6412 c 0,-2.5195 0.74219,-4.4883 2.2344,-5.9062 1.4883,-1.4258 3.5547,-2.1406 6.2031,-2.1406 z"
         id="path3515" />
    </symbol>
    <symbol
       id="v"
       overflow="visible">
      <path
         d="M 14.953,-3.7188 H 6.7342 L 5.4217,0 H 0.1405 L 7.703,-20.406 h 6.2656 L 21.5311,0 H 16.2499 Z M 8.0468,-7.5 h 5.5781 l -2.7812,-8.125 z"
         id="path3518" />
    </symbol>
    <symbol
       id="g-4"
       overflow="visible">
      <path
         d="M 2.3594,-15.312 H 7.25 V 0 H 2.3594 Z m 0,-5.9688 H 7.25 v 4 H 2.3594 Z"
         id="path3521" />
    </symbol>
    <symbol
       id="u-7"
       overflow="visible">
      <path
         d="m 0.82812,-20.406 h 5.0469 l 3.5312,14.828 3.5,-14.828 h 5.0781 l 3.5,14.828 3.5156,-14.828 h 5.0156 L 25.20302,0 h -6.0781 L 15.42182,-15.516 11.76562,0 h -6.0781 z"
         id="path3524" />
    </symbol>
    <symbol
       id="t-2"
       overflow="visible">
      <path
         d="m 0.98438,-15.312 h 4.7656 l 2.5625,10.547 2.5781,-10.547 h 4.0938 l 2.5781,10.438 2.5781,-10.438 h 4.75 L 20.85938,0 h -5.3438 L 12.93748,-10.531 10.35938,0 h -5.3438 z"
         id="path3527" />
    </symbol>
    <symbol
       id="s-4"
       overflow="visible">
      <path
         d="m 12.422,-21.281 v 3.2188 H 9.7189 c -0.6875,0 -1.1719,0.125 -1.4531,0.375 -0.27344,0.25 -0.40625,0.6875 -0.40625,1.3125 v 1.0625 h 4.1875 v 3.5 H 7.85955 V -2e-4 h -4.8906 v -11.812 h -2.4375 v -3.5 h 2.4375 v -1.0625 c 0,-1.6641 0.46094,-2.8984 1.3906,-3.7031 0.92578,-0.80078 2.3672,-1.2031 4.3281,-1.2031 z"
         id="path3530" />
    </symbol>
    <symbol
       id="r-8"
       overflow="visible">
      <path
         d="m 16.547,-12.766 c 0.61328,-0.94531 1.3477,-1.6719 2.2031,-2.1719 0.85156,-0.5 1.7891,-0.75 2.8125,-0.75 1.7578,0 3.0977,0.54688 4.0156,1.6406 0.92578,1.0859 1.3906,2.6562 1.3906,4.7188 V -4e-4 h -4.9219 v -7.9844 -0.35938 c 0.0078,-0.13281 0.01563,-0.32031 0.01563,-0.5625 0,-1.082 -0.16406,-1.8633 -0.48438,-2.3438 -0.3125,-0.48828 -0.82422,-0.73438 -1.5312,-0.73438 -0.92969,0 -1.6484,0.38672 -2.1562,1.1562 -0.51172,0.76172 -0.77344,1.8672 -0.78125,3.3125 v 7.5156 h -4.9219 v -7.9844 c 0,-1.6953 -0.14844,-2.7852 -0.4375,-3.2656 -0.29297,-0.48828 -0.8125,-0.73438 -1.5625,-0.73438 -0.9375,0 -1.6641,0.38672 -2.1719,1.1562 -0.51172,0.76172 -0.76562,1.8594 -0.76562,3.2969 v 7.5312 h -4.9219 v -15.312 h 4.9219 v 2.2344 c 0.60156,-0.86328 1.2891,-1.5156 2.0625,-1.9531 0.78125,-0.4375 1.6406,-0.65625 2.5781,-0.65625 1.0625,0 2,0.25781 2.8125,0.76562 0.8125,0.51172 1.4258,1.2305 1.8438,2.1562 z"
         id="path3533" />
    </symbol>
    <symbol
       id="q-0"
       overflow="visible">
      <path
         d="M 17.75,-9.3281 V 0 h -4.9219 v -7.1094 c 0,-1.3438 -0.03125,-2.2656 -0.09375,-2.7656 -0.0625,-0.5 -0.16797,-0.86719 -0.3125,-1.1094 -0.1875,-0.3125 -0.44922,-0.55469 -0.78125,-0.73438 -0.32422,-0.17578 -0.69531,-0.26562 -1.1094,-0.26562 -1.0234,0 -1.8242,0.39844 -2.4062,1.1875 -0.58594,0.78125 -0.875,1.8711 -0.875,3.2656 V -1e-4 H 2.3594 v -21.281 H 7.25 v 8.2031 c 0.73828,-0.88281 1.5195,-1.5391 2.3438,-1.9688 0.83203,-0.42578 1.75,-0.64062 2.75,-0.64062 1.7695,0 3.1133,0.54688 4.0312,1.6406 0.91406,1.0859 1.375,2.6562 1.375,4.7188 z"
         id="path3536" />
    </symbol>
    <symbol
       id="p-2"
       overflow="visible">
      <path
         d="m 2.5781,-20.406 h 5.875 l 7.4219,14 v -14 h 4.9844 V 0 h -5.875 L 7.5625,-14 V 0 H 2.5781 Z"
         id="path3539" />
    </symbol>
    <symbol
       id="o-7"
       overflow="visible">
      <path
         d="m 2.1875,-5.9688 v -9.3438 h 4.9219 v 1.5312 c 0,0.83594 -0.00781,1.875 -0.015625,3.125 -0.011719,1.25 -0.015625,2.0859 -0.015625,2.5 0,1.2422 0.03125,2.1328 0.09375,2.6719 0.070313,0.54297 0.17969,0.93359 0.32812,1.1719 0.20703,0.32422 0.47266,0.57422 0.79688,0.75 0.32031,0.16797 0.69141,0.25 1.1094,0.25 1.0195,0 1.8203,-0.39062 2.4062,-1.1719 0.58203,-0.78125 0.875,-1.8672 0.875,-3.2656 v -7.5625 h 4.8906 V -6e-4 H 12.6875 V -2.2194 C 11.94531,-1.32096 11.1641,-0.6608 10.3437,-0.235 9.51948,0.17906 8.6093,0.39 7.6093,0.39 5.8476,0.39 4.5038,-0.14906 3.5781,-1.235 2.64841,-2.317 2.1875,-3.8952 2.1875,-5.9694 Z"
         id="path3542" />
    </symbol>
    <symbol
       id="n-2"
       overflow="visible">
      <path
         d="M 17.75,-9.3281 V 0 h -4.9219 v -7.1406 c 0,-1.3203 -0.03125,-2.2344 -0.09375,-2.7344 -0.0625,-0.5 -0.16797,-0.86719 -0.3125,-1.1094 -0.1875,-0.3125 -0.44922,-0.55469 -0.78125,-0.73438 -0.32422,-0.17578 -0.69531,-0.26562 -1.1094,-0.26562 -1.0234,0 -1.8242,0.39844 -2.4062,1.1875 -0.58594,0.78125 -0.875,1.8711 -0.875,3.2656 V -1e-4 H 2.3594 v -15.312 H 7.25 v 2.2344 c 0.73828,-0.88281 1.5195,-1.5391 2.3438,-1.9688 0.83203,-0.42578 1.75,-0.64062 2.75,-0.64062 1.7695,0 3.1133,0.54688 4.0312,1.6406 0.91406,1.0859 1.375,2.6562 1.375,4.7188 z"
         id="path3545" />
    </symbol>
    <symbol
       id="m-3"
       overflow="visible">
      <path
         d="m 2.5781,-20.406 h 8.7344 c 2.5938,0 4.582,0.57812 5.9688,1.7344 1.3945,1.1484 2.0938,2.7891 2.0938,4.9219 0,2.1367 -0.69922,3.7812 -2.0938,4.9375 -1.3867,1.1562 -3.375,1.7344 -5.9688,1.7344 H 7.8281 V 3e-4 h -5.25 z m 5.25,3.8125 v 5.7031 H 10.75 c 1.0195,0 1.8047,-0.25 2.3594,-0.75 0.5625,-0.5 0.84375,-1.2031 0.84375,-2.1094 0,-0.91406 -0.28125,-1.6172 -0.84375,-2.1094 -0.55469,-0.48828 -1.3398,-0.73438 -2.3594,-0.73438 z"
         id="path3548" />
    </symbol>
    <symbol
       id="l-2"
       overflow="visible">
      <path
         d="M 2.3594,-15.312 H 7.25 v 15.031 c 0,2.0508 -0.49609,3.6172 -1.4844,4.7031 -0.98047,1.082 -2.4062,1.625 -4.2812,1.625 H -0.9375 V 2.8283 h 0.85938 c 0.92578,0 1.5625,-0.21094 1.9062,-0.625 0.35156,-0.41797 0.53125,-1.2461 0.53125,-2.4844 z m 0,-5.9688 H 7.25 v 4 H 2.3594 Z"
         id="path3551" />
    </symbol>
    <symbol
       id="k-5"
       overflow="visible">
      <path
         d="m 14.719,-14.828 v 3.9844 c -0.65625,-0.45703 -1.3242,-0.79688 -2,-1.0156 -0.66797,-0.21875 -1.3594,-0.32812 -2.0781,-0.32812 -1.3672,0 -2.4336,0.40234 -3.2031,1.2031 -0.76172,0.79297 -1.1406,1.9062 -1.1406,3.3438 0,1.4297 0.37891,2.543 1.1406,3.3438 0.76953,0.79297 1.8359,1.1875 3.2031,1.1875 0.75781,0 1.4844,-0.10938 2.1719,-0.32812 0.6875,-0.22656 1.3203,-0.56641 1.9062,-1.0156 v 4 c -0.76172,0.28125 -1.5391,0.48828 -2.3281,0.625 -0.78125,0.14453 -1.5742,0.21875 -2.375,0.21875 -2.7617,0 -4.9219,-0.70703 -6.4844,-2.125 -1.5547,-1.4141 -2.3281,-3.3828 -2.3281,-5.9062 0,-2.5312 0.77344,-4.5039 2.3281,-5.9219 1.5625,-1.4141 3.7227,-2.125 6.4844,-2.125 0.80078,0 1.5938,0.07422 2.375,0.21875 0.78125,0.13672 1.5547,0.35156 2.3281,0.64062 z"
         id="path3554" />
    </symbol>
    <symbol
       id="w-5"
       overflow="visible">
      <path
         d="m 18.766,-1.125 c -0.96875,0.5 -1.9805,0.875 -3.0312,1.125 -1.043,0.25781 -2.1367,0.39062 -3.2812,0.39062 -3.3984,0 -6.0898,-0.94531 -8.0781,-2.8438 -1.9922,-1.9062 -2.9844,-4.4844 -2.9844,-7.7344 0,-3.2578 0.99219,-5.8359 2.9844,-7.7344 1.9883,-1.9062 4.6797,-2.8594 8.0781,-2.8594 1.1445,0 2.2383,0.13281 3.2812,0.39062 1.0508,0.25 2.0625,0.625 3.0312,1.125 v 4.2188 c -0.98047,-0.65625 -1.9453,-1.1406 -2.8906,-1.4531 -0.94922,-0.3125 -1.9492,-0.46875 -3,-0.46875 -1.875,0 -3.3516,0.60547 -4.4219,1.8125 -1.0742,1.1992 -1.6094,2.8555 -1.6094,4.9688 0,2.1055 0.53516,3.7617 1.6094,4.9688 1.0703,1.1992 2.5469,1.7969 4.4219,1.7969 1.0508,0 2.0508,-0.14844 3,-0.45312 0.94531,-0.3125 1.9102,-0.80078 2.8906,-1.4688 z"
         id="path3925" />
    </symbol>
    <symbol
       id="d-2"
       overflow="visible">
      <path
         d="m 13.734,-11.141 c -0.4375,-0.19531 -0.87109,-0.34375 -1.2969,-0.4375 -0.41797,-0.10156 -0.83984,-0.15625 -1.2656,-0.15625 -1.2617,0 -2.2305,0.40625 -2.9062,1.2188 -0.67969,0.80469 -1.0156,1.9531 -1.0156,3.4531 v 7.0625 H 2.3591 v -15.312 h 4.8906 v 2.5156 c 0.625,-1 1.3438,-1.7266 2.1562,-2.1875 0.82031,-0.46875 1.8008,-0.70312 2.9375,-0.70312 0.16406,0 0.34375,0.01172 0.53125,0.03125 0.19531,0.01172 0.47656,0.03906 0.84375,0.07813 z"
         id="path3928" />
    </symbol>
    <symbol
       id="b-6"
       overflow="visible">
      <path
         d="m 17.641,-7.7031 v 1.4062 H 6.188 c 0.125,1.1484 0.53906,2.0078 1.25,2.5781 0.70703,0.57422 1.7031,0.85938 2.9844,0.85938 1.0312,0 2.082,-0.14844 3.1562,-0.45312 1.082,-0.3125 2.1914,-0.77344 3.3281,-1.3906 v 3.7656 c -1.1562,0.4375 -2.3125,0.76562 -3.4688,0.98438 -1.1562,0.22656 -2.3125,0.34375 -3.4688,0.34375 -2.7734,0 -4.9297,-0.70312 -6.4688,-2.1094 -1.5312,-1.4062 -2.2969,-3.3789 -2.2969,-5.9219 0,-2.5 0.75391,-4.4609 2.2656,-5.8906 1.5078,-1.4375 3.582,-2.1562 6.2188,-2.1562 2.4062,0 4.332,0.73047 5.7812,2.1875 1.4453,1.4492 2.1719,3.3828 2.1719,5.7969 z m -5.0312,-1.625 c 0,-0.92578 -0.27344,-1.6719 -0.8125,-2.2344 -0.54297,-0.57031 -1.25,-0.85938 -2.125,-0.85938 -0.94922,0 -1.7188,0.26562 -2.3125,0.79688 -0.5937,0.53126 -0.96484,1.2969 -1.1094,2.2969 z"
         id="path3931" />
    </symbol>
    <symbol
       id="a-0"
       overflow="visible">
      <path
         d="m 9.2188,-6.8906 c -1.0234,0 -1.793,0.17188 -2.3125,0.51562 -0.51172,0.34375 -0.76562,0.85547 -0.76562,1.5312 0,0.625 0.20703,1.1172 0.625,1.4688 0.41406,0.34375 0.98828,0.51562 1.7188,0.51562 0.92578,0 1.7031,-0.32812 2.3281,-0.98438 0.63281,-0.66406 0.95312,-1.4922 0.95312,-2.4844 v -0.5625 z m 7.4688,-1.8438 V 0 h -4.9219 v -2.2656 c -0.65625,0.92969 -1.3984,1.6055 -2.2188,2.0312 -0.82422,0.41406 -1.8242,0.625 -3,0.625 -1.5859,0 -2.8711,-0.45703 -3.8594,-1.375 -0.99219,-0.92578 -1.4844,-2.1289 -1.4844,-3.6094 0,-1.7891 0.61328,-3.1016 1.8438,-3.9375 1.2383,-0.84375 3.1797,-1.2656 5.8281,-1.2656 h 2.8906 v -0.39062 c 0,-0.76953 -0.30859,-1.332 -0.92188,-1.6875 -0.61719,-0.36328 -1.5703,-0.54688 -2.8594,-0.54688 -1.0547,0 -2.0312,0.10547 -2.9375,0.3125 -0.89844,0.21094 -1.7305,0.52344 -2.5,0.9375 v -3.7344 c 1.0391,-0.25 2.0859,-0.44141 3.1406,-0.57812 1.0625,-0.13281 2.125,-0.20312 3.1875,-0.20312 2.7578,0 4.75,0.54688 5.9688,1.6406 1.2266,1.0859 1.8438,2.8555 1.8438,5.3125 z"
         id="path3934" />
    </symbol>
    <symbol
       id="c-5"
       overflow="visible">
      <path
         d="m 7.7031,-19.656 v 4.3438 H 12.75 v 3.5 H 7.7031 v 6.5 c 0,0.71094 0.14062,1.1875 0.42188,1.4375 0.28126,0.25 0.83594,0.375 1.6719,0.375 h 2.5156 v 3.5 h -4.1875 c -1.9375,0 -3.3125,-0.39844 -4.125,-1.2031 -0.80469,-0.8125 -1.2031,-2.1797 -1.2031,-4.1094 v -6.5 h -2.4219 v -3.5 h 2.4219 v -4.3438 z"
         id="path3937" />
    </symbol>
    <symbol
       id="l-9"
       overflow="visible">
      <path
         d="m 12.766,-13.078 v -8.2031 h 4.9219 V -1e-4 H 12.766 v -2.2188 c -0.66797,0.90625 -1.4062,1.5703 -2.2188,1.9844 -0.8126,0.4141 -1.7578,0.625 -2.8281,0.625 -1.8867,0 -3.4336,-0.75 -4.6406,-2.25 -1.2109,-1.5 -1.8125,-3.4258 -1.8125,-5.7812 0,-2.3633 0.60156,-4.2969 1.8125,-5.7969 1.207,-1.5 2.7539,-2.25 4.6406,-2.25 1.0625,0 2,0.21484 2.8125,0.64062 0.82031,0.42969 1.5664,1.0859 2.2344,1.9688 z m -3.2188,9.9219 c 1.0391,0 1.8359,-0.37891 2.3906,-1.1406 0.55078,-0.76953 0.82812,-1.8828 0.82812,-3.3438 0,-1.457 -0.27734,-2.5664 -0.82812,-3.3281 -0.55469,-0.76953 -1.3516,-1.1562 -2.3906,-1.1562 -1.043,0 -1.8398,0.38672 -2.3906,1.1562 -0.55469,0.76172 -0.82812,1.8711 -0.82812,3.3281 0,1.4609 0.27344,2.5742 0.82812,3.3438 0.55078,0.76172 1.3477,1.1406 2.3906,1.1406 z"
         id="path3940" />
    </symbol>
    <symbol
       id="k-9"
       overflow="visible">
      <path
         d="m 10.5,-3.1562 c 1.0508,0 1.8516,-0.37891 2.4062,-1.1406 0.55078,-0.76953 0.82812,-1.8828 0.82812,-3.3438 0,-1.457 -0.27734,-2.5664 -0.82812,-3.3281 -0.55469,-0.76953 -1.3555,-1.1562 -2.4062,-1.1562 -1.0547,0 -1.8594,0.38672 -2.4219,1.1562 -0.55469,0.77344 -0.82812,1.8828 -0.82812,3.3281 0,1.4492 0.27344,2.5586 0.82812,3.3281 0.5625,0.77344 1.3672,1.1562 2.4219,1.1562 z m -3.25,-9.9219 c 0.67578,-0.88281 1.4219,-1.5391 2.2344,-1.9688 0.82031,-0.42578 1.7656,-0.64062 2.8281,-0.64062 1.8945,0 3.4453,0.75 4.6562,2.25 1.207,1.5 1.8125,3.4336 1.8125,5.7969 0,2.3555 -0.60547,4.2812 -1.8125,5.7812 -1.2109,1.5 -2.7617,2.25 -4.6562,2.25 -1.0625,0 -2.0078,-0.21094 -2.8281,-0.625 C 8.6719,-0.6602 7.9258,-1.32032 7.25,-2.21882 V -2e-5 H 2.3594 v -21.281 H 7.25 Z"
         id="path3943" />
    </symbol>
    <symbol
       id="f-2"
       overflow="visible">
      <path
         d="m 0.34375,-15.312 h 4.8906 l 4.125,10.391 3.5,-10.391 h 4.8906 l -6.4375,16.766 c -0.64844,1.6953 -1.4023,2.8828 -2.2656,3.5625 -0.86719,0.6875 -2,1.0312 -3.4062,1.0312 H 2.79685 V 2.8289 h 1.5312 c 0.83203,0 1.4375,-0.13672 1.8125,-0.40625 C 6.52336,2.16093 6.82024,1.69218 7.03117,1.01645 L 7.17179,0.59457 Z"
         id="path3946" />
    </symbol>
    <symbol
       id="j-9"
       overflow="visible">
      <path
         d="m 11.891,-16.969 c -1.6055,0 -2.8516,0.59375 -3.7344,1.7812 -0.875,1.1875 -1.3125,2.8555 -1.3125,5 0,2.1484 0.4375,3.8125 1.3125,5 0.88281,1.1797 2.1289,1.7656 3.7344,1.7656 1.6133,0 2.8633,-0.58594 3.75,-1.7656 0.88281,-1.1875 1.3281,-2.8516 1.3281,-5 0,-2.1445 -0.44531,-3.8125 -1.3281,-5 -0.88672,-1.1875 -2.1367,-1.7812 -3.75,-1.7812 z m 0,-3.8125 c 3.2812,0 5.8477,0.9375 7.7031,2.8125 1.8633,1.875 2.7969,4.4688 2.7969,7.7812 0,3.3047 -0.93359,5.8906 -2.7969,7.7656 -1.8555,1.875 -4.4219,2.8125 -7.7031,2.8125 -3.2734,0 -5.8398,-0.9375 -7.7031,-2.8125 -1.8672,-1.875 -2.7969,-4.4609 -2.7969,-7.7656 0,-3.3125 0.92969,-5.9062 2.7969,-7.7812 1.8633,-1.875 4.4297,-2.8125 7.7031,-2.8125 z"
         id="path3949" />
    </symbol>
    <symbol
       id="v-5"
       overflow="visible">
      <path
         d="M 2.3594,-21.281 H 7.25 v 11.594 l 5.625,-5.625 h 5.6875 L 11.0937,-8.2808 19.1562,4e-4 H 13.2187 L 7.2499,-6.3902 V 4e-4 H 2.3593 Z"
         id="path3952" />
    </symbol>
    <symbol
       id="i-4"
       overflow="visible">
      <path
         d="m 14.312,-14.828 v 3.7188 c -1.043,-0.4375 -2.0547,-0.76562 -3.0312,-0.98438 -0.98047,-0.21875 -1.9023,-0.32812 -2.7656,-0.32812 -0.92969,0 -1.6211,0.11719 -2.0781,0.34375 -0.44922,0.23047 -0.67188,0.58984 -0.67188,1.0781 0,0.38672 0.17188,0.68359 0.51562,0.89062 0.34375,0.21094 0.95703,0.36719 1.8438,0.46875 l 0.85938,0.125 c 2.5078,0.32422 4.1953,0.85156 5.0625,1.5781 0.86328,0.73047 1.2969,1.8711 1.2969,3.4219 0,1.6367 -0.60547,2.8672 -1.8125,3.6875 -1.1992,0.8125 -2.9922,1.2188 -5.375,1.2188 -1.0234,0 -2.0742,-0.078125 -3.1562,-0.23438 -1.0742,-0.15625 -2.1797,-0.39453 -3.3125,-0.71875 v -3.7188 c 0.96875,0.48047 1.9609,0.83984 2.9844,1.0781 1.0312,0.23047 2.0781,0.34375 3.1406,0.34375 0.95703,0 1.6758,-0.12891 2.1562,-0.39062 0.47656,-0.26953 0.71875,-0.66406 0.71875,-1.1875 0,-0.4375 -0.16797,-0.75781 -0.5,-0.96875 -0.33594,-0.21875 -0.99609,-0.38281 -1.9844,-0.5 L 7.34339,-6.01551 c -2.1797,-0.26953 -3.7031,-0.77344 -4.5781,-1.5156 -0.875,-0.73828 -1.3125,-1.8594 -1.3125,-3.3594 0,-1.625 0.55078,-2.8281 1.6562,-3.6094 1.1133,-0.78906 2.8203,-1.1875 5.125,-1.1875 0.89453,0 1.8359,0.07422 2.8281,0.21875 1,0.13672 2.082,0.35156 3.25,0.64062 z"
         id="path3955" />
    </symbol>
    <symbol
       id="h-59"
       overflow="visible">
      <path
         d="M 17.75,-9.3281 V 0 h -4.9219 v -7.1406 c 0,-1.3203 -0.03125,-2.2344 -0.09375,-2.7344 -0.0625,-0.5 -0.16797,-0.86719 -0.3125,-1.1094 -0.1875,-0.3125 -0.44922,-0.55469 -0.78125,-0.73438 -0.32422,-0.17578 -0.69531,-0.26562 -1.1094,-0.26562 -1.0234,0 -1.8242,0.39844 -2.4062,1.1875 -0.58594,0.78125 -0.875,1.8711 -0.875,3.2656 V -1e-4 H 2.3594 v -15.312 H 7.25 v 2.2344 c 0.73828,-0.88281 1.5195,-1.5391 2.3438,-1.9688 0.83203,-0.42578 1.75,-0.64062 2.75,-0.64062 1.7695,0 3.1133,0.54688 4.0312,1.6406 0.91406,1.0859 1.375,2.6562 1.375,4.7188 z"
         id="path3958" />
    </symbol>
    <symbol
       id="u-1"
       overflow="visible">
      <path
         d="m 2.5781,-20.406 h 5.25 v 16.422 h 9.25 V 4e-4 h -14.5 z"
         id="path3961" />
    </symbol>
    <symbol
       id="g-0"
       overflow="visible">
      <path
         d="M 17.75,-9.3281 V 0 h -4.9219 v -7.1094 c 0,-1.3438 -0.03125,-2.2656 -0.09375,-2.7656 -0.0625,-0.5 -0.16797,-0.86719 -0.3125,-1.1094 -0.1875,-0.3125 -0.44922,-0.55469 -0.78125,-0.73438 -0.32422,-0.17578 -0.69531,-0.26562 -1.1094,-0.26562 -1.0234,0 -1.8242,0.39844 -2.4062,1.1875 -0.58594,0.78125 -0.875,1.8711 -0.875,3.2656 V -1e-4 H 2.3594 v -21.281 H 7.25 v 8.2031 c 0.73828,-0.88281 1.5195,-1.5391 2.3438,-1.9688 0.83203,-0.42578 1.75,-0.64062 2.75,-0.64062 1.7695,0 3.1133,0.54688 4.0312,1.6406 0.91406,1.0859 1.375,2.6562 1.375,4.7188 z"
         id="path3964" />
    </symbol>
    <symbol
       id="t-5"
       overflow="visible">
      <path
         d="m 0.42188,-15.312 h 4.8906 l 3.8281,10.578 3.7969,-10.578 h 4.9062 L 11.81248,0 h -5.375 z"
         id="path3967" />
    </symbol>
    <symbol
       id="s-2"
       overflow="visible">
      <path
         d="m 12.422,-21.281 v 3.2188 H 9.7189 c -0.6875,0 -1.1719,0.125 -1.4531,0.375 -0.27344,0.25 -0.40625,0.6875 -0.40625,1.3125 v 1.0625 h 4.1875 v 3.5 H 7.85955 V -2e-4 h -4.8906 v -11.812 h -2.4375 v -3.5 h 2.4375 v -1.0625 c 0,-1.6641 0.46094,-2.8984 1.3906,-3.7031 0.92578,-0.80078 2.3672,-1.2031 4.3281,-1.2031 z"
         id="path3970" />
    </symbol>
    <symbol
       id="e-5"
       overflow="visible">
      <path
         d="m 9.6406,-12.188 c -1.0859,0 -1.9141,0.39062 -2.4844,1.1719 -0.57422,0.78125 -0.85938,1.9062 -0.85938,3.375 0,1.4688 0.28516,2.5938 0.85938,3.375 0.57031,0.77344 1.3984,1.1562 2.4844,1.1562 1.0625,0 1.875,-0.38281 2.4375,-1.1562 0.57031,-0.78125 0.85938,-1.9062 0.85938,-3.375 0,-1.4688 -0.28906,-2.5938 -0.85938,-3.375 -0.5625,-0.78125 -1.375,-1.1719 -2.4375,-1.1719 z m 0,-3.5 c 2.6328,0 4.6914,0.71484 6.1719,2.1406 1.4766,1.418 2.2188,3.3867 2.2188,5.9062 0,2.5117 -0.74219,4.4805 -2.2188,5.9062 C 14.332,-0.317 12.2734,0.39 9.6406,0.39 6.9922,0.39 4.9258,-0.31703 3.4375,-1.735 1.9453,-3.1608 1.2031,-5.1295 1.2031,-7.6412 c 0,-2.5195 0.74219,-4.4883 2.2344,-5.9062 1.4883,-1.4258 3.5547,-2.1406 6.2031,-2.1406 z"
         id="path3973" />
    </symbol>
    <symbol
       id="r-4"
       overflow="visible">
      <path
         d="m 16.547,-12.766 c 0.61328,-0.94531 1.3477,-1.6719 2.2031,-2.1719 0.85156,-0.5 1.7891,-0.75 2.8125,-0.75 1.7578,0 3.0977,0.54688 4.0156,1.6406 0.92578,1.0859 1.3906,2.6562 1.3906,4.7188 V -4e-4 h -4.9219 v -7.9844 -0.35938 c 0.0078,-0.13281 0.01563,-0.32031 0.01563,-0.5625 0,-1.082 -0.16406,-1.8633 -0.48438,-2.3438 -0.3125,-0.48828 -0.82422,-0.73438 -1.5312,-0.73438 -0.92969,0 -1.6484,0.38672 -2.1562,1.1562 -0.51172,0.76172 -0.77344,1.8672 -0.78125,3.3125 v 7.5156 h -4.9219 v -7.9844 c 0,-1.6953 -0.14844,-2.7852 -0.4375,-3.2656 -0.29297,-0.48828 -0.8125,-0.73438 -1.5625,-0.73438 -0.9375,0 -1.6641,0.38672 -2.1719,1.1562 -0.51172,0.76172 -0.76562,1.8594 -0.76562,3.2969 v 7.5312 h -4.9219 v -15.312 h 4.9219 v 2.2344 c 0.60156,-0.86328 1.2891,-1.5156 2.0625,-1.9531 0.78125,-0.4375 1.6406,-0.65625 2.5781,-0.65625 1.0625,0 2,0.25781 2.8125,0.76562 0.8125,0.51172 1.4258,1.2305 1.8438,2.1562 z"
         id="path3976" />
    </symbol>
    <symbol
       id="q-2"
       overflow="visible">
      <path
         d="m 2.5781,-20.406 h 5.875 l 7.4219,14 v -14 h 4.9844 V 0 h -5.875 L 7.5625,-14 V 0 H 2.5781 Z"
         id="path3979" />
    </symbol>
    <symbol
       id="p-9"
       overflow="visible">
      <path
         d="m 2.1875,-5.9688 v -9.3438 h 4.9219 v 1.5312 c 0,0.83594 -0.00781,1.875 -0.015625,3.125 -0.011719,1.25 -0.015625,2.0859 -0.015625,2.5 0,1.2422 0.03125,2.1328 0.09375,2.6719 0.070313,0.54297 0.17969,0.93359 0.32812,1.1719 0.20703,0.32422 0.47266,0.57422 0.79688,0.75 0.32031,0.16797 0.69141,0.25 1.1094,0.25 1.0195,0 1.8203,-0.39062 2.4062,-1.1719 0.58203,-0.78125 0.875,-1.8672 0.875,-3.2656 v -7.5625 h 4.8906 V -6e-4 H 12.6875 V -2.2194 C 11.94531,-1.32096 11.1641,-0.6608 10.3437,-0.235 9.51948,0.17906 8.6093,0.39 7.6093,0.39 5.8476,0.39 4.5038,-0.14906 3.5781,-1.235 2.64841,-2.317 2.1875,-3.8952 2.1875,-5.9694 Z"
         id="path3982" />
    </symbol>
    <symbol
       id="o-6"
       overflow="visible">
      <path
         d="m 2.5781,-20.406 h 8.7344 c 2.5938,0 4.582,0.57812 5.9688,1.7344 1.3945,1.1484 2.0938,2.7891 2.0938,4.9219 0,2.1367 -0.69922,3.7812 -2.0938,4.9375 -1.3867,1.1562 -3.375,1.7344 -5.9688,1.7344 H 7.8281 V 3e-4 h -5.25 z m 5.25,3.8125 v 5.7031 H 10.75 c 1.0195,0 1.8047,-0.25 2.3594,-0.75 0.5625,-0.5 0.84375,-1.2031 0.84375,-2.1094 0,-0.91406 -0.28125,-1.6172 -0.84375,-2.1094 -0.55469,-0.48828 -1.3398,-0.73438 -2.3594,-0.73438 z"
         id="path3985" />
    </symbol>
    <symbol
       id="n-4"
       overflow="visible">
      <path
         d="M 2.3594,-15.312 H 7.25 v 15.031 c 0,2.0508 -0.49609,3.6172 -1.4844,4.7031 -0.98047,1.082 -2.4062,1.625 -4.2812,1.625 H -0.9375 V 2.8283 h 0.85938 c 0.92578,0 1.5625,-0.21094 1.9062,-0.625 0.35156,-0.41797 0.53125,-1.2461 0.53125,-2.4844 z m 0,-5.9688 H 7.25 v 4 H 2.3594 Z"
         id="path3988" />
    </symbol>
    <symbol
       id="m-7"
       overflow="visible">
      <path
         d="m 14.719,-14.828 v 3.9844 c -0.65625,-0.45703 -1.3242,-0.79688 -2,-1.0156 -0.66797,-0.21875 -1.3594,-0.32812 -2.0781,-0.32812 -1.3672,0 -2.4336,0.40234 -3.2031,1.2031 -0.76172,0.79297 -1.1406,1.9062 -1.1406,3.3438 0,1.4297 0.37891,2.543 1.1406,3.3438 0.76953,0.79297 1.8359,1.1875 3.2031,1.1875 0.75781,0 1.4844,-0.10938 2.1719,-0.32812 0.6875,-0.22656 1.3203,-0.56641 1.9062,-1.0156 v 4 c -0.76172,0.28125 -1.5391,0.48828 -2.3281,0.625 -0.78125,0.14453 -1.5742,0.21875 -2.375,0.21875 -2.7617,0 -4.9219,-0.70703 -6.4844,-2.125 -1.5547,-1.4141 -2.3281,-3.3828 -2.3281,-5.9062 0,-2.5312 0.77344,-4.5039 2.3281,-5.9219 1.5625,-1.4141 3.7227,-2.125 6.4844,-2.125 0.80078,0 1.5938,0.07422 2.375,0.21875 0.78125,0.13672 1.5547,0.35156 2.3281,0.64062 z"
         id="path3991" />
    </symbol>
  </defs>
  <g
     id="g2052"
     transform="translate(-50.075746,-0.1576098)">
    <path
       d="m 92.656,545.99 h 528.9 v 11.668 h -528.9 z"
       id="path1936" />
    <path
       d="M 354.1372,534.35 V 387.06 h 186.79 v 147.29 h -52.852 v -48.941 c 0,-22.391 -18.152,-40.543 -40.543,-40.543 -22.391,0 -40.543,18.152 -40.543,40.543 v 48.941 z"
       id="path1938" />
    <path
       d="m 311.4372,375.39 h 272.24 l -100.74,-113.16 h -70.699 z"
       id="path1940" />
    <path
       d="m 178.4972,487.1 h -11.668 v 47.25 h 11.668 z"
       id="path1942" />
    <path
       d="m 583.6772,357.83 -9.1602,-41.707 h 35.523 c -22.031,-43.191 -50.477,-98.965 -63.582,-124.66 l -39.84,79.859 z"
       id="path1944" />
    <path
       d="m 295.4472,459.5 h -11.668 v 74.84 h 11.668 z"
       id="path1946" />
    <path
       d="m 538.6472,114.93 h -91.699 l -17.266,-33.773 -17.266,33.773 h -46.316 c -14.41,0 -26.543,-11.668 -26.543,-26.543 0,-14.699 11.898,-26.602 26.543,-26.602 h 6.9414 c 0.35156,-37.449 46.785,-55.301 71.984,-27.707 27.824,-44.449 97.184,-24.676 97.301,27.941 12.66,1.6914 22.926,12.602 22.926,26.367 -0.004,14.703 -11.902,26.543 -26.605,26.543 z"
       id="path1948" />
    <path
       d="m 193.61666,140.35099 -13.62861,8.4049 22.94517,32.61121 13.62861,-8.4049 z"
       id="path1950"
       style="stroke-width:1.35352" />
    <path
       d="m 211.56487,115.50822 3.26229,-14.97377 40.88639,7.86771 -3.26229,14.97377 z"
       id="path1952"
       style="stroke-width:1.35352" />
    <path
       d="m 234.6891,36.810191 -34.84163,21.465359 8.97285,12.75821 34.84163,-21.465359 z"
       id="path1954"
       style="stroke-width:1.35352" />
    <path
       d="m 132.49762,151.33838 15.98972,3.05395 -8.40447,38.27515 -15.99531,-3.13068 z"
       id="path1958"
       style="stroke-width:1.35352" />
    <path
       d="m 97.020878,121.70254 -34.841632,21.54132 8.994669,12.74799 34.841635,-21.54131 z"
       id="path1960"
       style="stroke-width:1.35352" />
    <path
       d="m 157.30056,38.35026 8.40447,-38.1926502 15.99531,3.053945 -8.40447,38.2751542 z"
       id="path1962"
       style="stroke-width:1.35352" />
    <path
       d="M 90.879598,92.282776 50.075746,84.415069 53.338039,69.441308 94.224428,77.309015 Z"
       id="path1964"
       style="stroke-width:1.35352" />
    <path
       d="m 102.89637,11.472398 -13.628617,8.404897 22.907407,32.5549 13.62861,-8.404897 z"
       id="path1966"
       style="stroke-width:1.35352" />
    <path
       d="m 401.6172,231.42 -15.691,30.742 h 10.734 l 10.324,-11.609 h 63.406 l -12.715,-19.133 h 35.582 l -63.582,-124.6 -63.641,124.6 z"
       id="path1968" />
    <path
       d="m 78.4472,475.43 h 188.42 l -3.0352,-15.926 h -96.25 l 65.273,-127.98 H 179.48 l 41.125,-80.5 c -40.992,-83.992 -14.977,-30.73 -47.949,-98.41 l -63.582,111.82 h 35.523 c -26.711,46.938 4.5352,-8.0039 -55.242,97.066 h 47.949 c 5.3516,-7.8594 -35.875,70.066 -58.855,113.93 z"
       id="path1972" />
    <path
       d="m 387.96,271.85 h -10.91 v -11.668 h 10.91 z m 3.6172,131.95 h -10.91 v -11.668 h 10.91 z"
       id="path1974" />
    <path
       d="m 186.6672,447.84 h 150.5 l 9.1016,-60.785 h -60.84 l 73.148,-82.074 3.2656,-21.992 -41.535,-81.434 h 38.852 c -64.691,-126.76 -19.016,-37.273 -69.535,-136.27 l -69.535,136.27 h 38.91 c -38.594,75.543 2.3945,-4.832 -60.434,118.3 h 53.375 l -36.867,72.273 h 70.875 v 11.668 h -76.824 z"
       id="path1976" />
  </g>
  <g
     id="g3643"
     transform="matrix(0.26937669,0.05825555,-0.05331439,0.24652852,35.267314,-1.1143098)">
    <path
       d="m 531.18577,264.83634 h -30.777 c -3.5039,-11.391 -8.1094,-22.461 -13.746,-33.078 l 21.797,-21.801 c 4.375,-4.375 4.375,-11.465 0,-15.836 l -63.363,-63.355 c -4.375,-4.375 -11.465,-4.375 -15.836,0 l -21.801,21.797 c -10.617,-5.6406 -21.688,-10.242 -33.078,-13.746 v -30.781 c 0,-6.1836 -5.0195,-11.199003 -11.199,-11.199003 h -89.598 c -6.1836,0 -11.199,5.019503 -11.199,11.199003 v 30.777 c -11.391,3.5039 -22.461,8.1094 -33.078,13.746 l -21.801,-21.797 c -4.375,-4.375 -11.469,-4.375 -15.836,0 l -63.355,63.363 c -4.375,4.375 -4.375,11.465 0,15.836 l 21.797,21.801 c -5.6406,10.617 -10.242,21.688 -13.746,33.078 h -30.781 c -6.183604,0 -11.199004,5.0195 -11.199004,11.199 v 89.602 c 0,6.1836 5.0195,11.199 11.199004,11.199 h 30.777 c 3.5039,11.391 8.1094,22.461 13.746,33.078 l -21.797,21.801 c -4.375,4.375 -4.375,11.465 0,15.836 l 63.352,63.352 c 4.375,4.375 11.465,4.375 15.836,0 l 21.801,-21.797 c 10.617,5.6406 21.688,10.242 33.078,13.746 l 0.008,30.781 c 0,6.1836 5.0195,11.199 11.199,11.199 h 89.602 c 6.1836,0 11.199,-5.0195 11.199,-11.199 v -30.777 c 11.391,-3.5039 22.461,-8.1094 33.078,-13.746 l 21.801,21.797 c 4.375,4.375 11.469,4.375 15.836,0 l 63.352,-63.352 c 4.375,-4.375 4.375,-11.465 0,-15.836 l -21.797,-21.801 c 5.6406,-10.617 10.242,-21.688 13.746,-33.078 l 30.785,-0.008 c 6.1836,0 11.199,-5.0195 11.199,-11.199 v -89.602 c 0,-6.1797 -5.0195,-11.199 -11.199,-11.199 z m -11.199,89.602 h -28.043 c -5.1133,0 -9.5703,3.4609 -10.848,8.4062 -3.8867,15.102 -9.9336,29.668 -17.988,43.301 -2.5977,4.4023 -1.8867,10 1.7266,13.613 l 19.867,19.875 -47.516,47.516 -19.875,-19.867 c -3.6133,-3.6172 -9.2188,-4.3164 -13.613,-1.7266 -13.629,8.0547 -28.195,14.105 -43.301,17.988 -4.9492,1.2734 -8.4102,5.7344 -8.4102,10.848 v 28.047 h -67.203 v -28.043 c 0,-5.1133 -3.4609,-9.5703 -8.4062,-10.848 -15.102,-3.8867 -29.668,-9.9336 -43.301,-17.988 -4.3945,-2.5977 -10,-1.8867 -13.613,1.7266 l -19.875,19.867 -47.516,-47.516 19.867,-19.875 c 3.6172,-3.6133 4.3242,-9.2188 1.7266,-13.613 -8.0547,-13.629 -14.105,-28.195 -17.988,-43.301 -1.2734,-4.9492 -5.7344,-8.4102 -10.848,-8.4102 h -28.047 v -67.203 h 28.043 c 5.1133,0 9.5703,-3.4609 10.848,-8.4062 3.8867,-15.102 9.9336,-29.668 17.988,-43.301 2.5977,-4.4023 1.8867,-10 -1.7266,-13.613 l -19.867,-19.875 47.516,-47.516 19.875,19.867 c 3.6133,3.6172 9.2188,4.3164 13.613,1.7266 13.629,-8.0547 28.195,-14.105 43.301,-17.988 4.9492,-1.2734 8.4102,-5.7344 8.4102,-10.848 v -28.047 h 67.199 v 28.043 c 0,5.1133 3.4609,9.5703 8.4062,10.848 15.102,3.8867 29.668,9.9336 43.301,17.988 4.3945,2.5977 10.008,1.8984 13.613,-1.7266 l 19.875,-19.867 47.516,47.516 -19.867,19.875 c -3.6172,3.6133 -4.3242,9.2188 -1.7266,13.613 8.0547,13.629 14.105,28.195 17.988,43.301 1.2773,4.9492 5.7383,8.4102 10.852,8.4102 h 28.047 z m -87.281,-41.52 c 4.375,4.375 4.375,11.465 0,15.836 l -44.801,44.801 c -2.1836,2.1875 -5.0508,3.2812 -7.918,3.2812 -2.8672,0 -5.7344,-1.0938 -7.918,-3.2812 -4.375,-4.375 -4.375,-11.465 0,-15.836 l 36.875,-36.883 -36.875,-36.883 c -4.375,-4.375 -4.375,-11.465 0,-15.836 4.3672,-4.375 11.469,-4.375 15.836,0 z m -168,-28.965 -36.879,36.883 36.875,36.883 c 4.375,4.375 4.375,11.465 0,15.836 -2.1836,2.1875 -5.0508,3.2812 -7.918,3.2812 -2.8672,0 -5.7344,-1.0938 -7.918,-3.2812 l -44.801,-44.801 c -4.375,-4.375 -4.375,-11.465 0,-15.836 l 44.801,-44.801 c 4.3672,-4.375 11.469,-4.375 15.836,0 4.375,4.375 4.375,11.465 0.004,15.836 z m 86.48,-14.957 -44.801,112 c -1.7539,4.3789 -5.9609,7.0391 -10.398,7.0391 -1.3906,0 -2.793,-0.25781 -4.1562,-0.80469 -5.7461,-2.2969 -8.5352,-8.8125 -6.2383,-14.559 l 44.801,-112 c 2.3008,-5.7461 8.8242,-8.5352 14.559,-6.2383 5.7383,2.3008 8.5273,8.8164 6.2344,14.562 z"
       id="path3559" />
  </g>
  <path
     style="fill:#002b00;stroke:#006f68;stroke-width:0.82386;stroke-linecap:round"
     d="m 29.396564,474.78298 c 0,-0.23493 9.94526,-19.39033 22.10057,-42.56756 26.93918,-51.36647 36.30115,-69.63482 36.30179,-70.83697 3.5e-4,-0.65681 -6.75715,-0.85064 -23.90329,-0.6856 l -23.90377,0.23009 2.06038,-3.52033 c 1.13321,-1.93619 13.53996,-23.69367 27.57057,-48.34995 l 25.51019,-44.82961 -17.53275,-0.41129 -17.53274,-0.41127 31.26799,-54.97498 31.267996,-54.97497 2.64599,5.62127 c 1.45529,3.09169 12.12496,25.01279 23.71036,48.71355 l 21.06436,43.09228 -20.54883,40.12464 c -11.30187,22.06856 -20.54885,40.34007 -20.54885,40.60337 0,0.2633 11.87573,0.47873 26.39052,0.47873 14.67101,0 26.26877,0.31851 26.11634,0.71723 -0.15081,0.39448 -14.61761,28.8375 -32.14845,63.20672 -17.53085,34.36922 -31.87427,62.73331 -31.87427,63.03131 0,0.298 21.58996,0.54181 47.97768,0.54181 h 47.97768 l 0.98342,5.33725 c 0.54088,2.93547 1.20637,6.45193 1.47884,7.81433 l 0.49543,2.47709 h -93.46358 c -51.404966,0 -93.463576,-0.19221 -93.463576,-0.42714 z"
     id="path3740" />
  <path
     style="fill:#005500;stroke:#006f68;stroke-width:0.82386;stroke-linecap:round"
     d="m 137.97471,446.77433 c 0,-0.25779 4.83911,-10.06684 10.75358,-21.79788 l 10.75357,-21.32919 h 38.63616 38.63617 l -0.24168,-5.96358 -0.24167,-5.96357 -35.09819,-0.41128 -35.09818,-0.41128 18.03003,-35.29481 c 9.91651,-19.41216 18.03003,-35.60121 18.03003,-35.97569 0,-0.37447 -11.81807,-0.77853 -26.26237,-0.8979 l -26.26236,-0.21704 29.86691,-58.40187 29.86691,-58.40188 -19.29675,-0.22068 c -10.61322,-0.12138 -19.17563,-0.51984 -19.02759,-0.8855 0.14805,-0.36565 15.6039,-30.7098 34.34634,-67.43145 l 34.07715,-66.76664 3.79712,7.19385 c 3.71272,7.03392 64.33125,125.74404 64.86299,127.02209 0.14805,0.35583 -8.41143,0.74627 -19.02105,0.86765 l -19.29022,0.22068 20.79299,40.7168 20.793,40.7168 -1.65485,10.69331 -1.65484,10.6933 -5.12677,5.75793 c -2.81973,3.16686 -19.31614,21.6745 -36.65871,41.12809 l -31.53195,35.37015 30.5912,0.21567 30.59119,0.21566 -0.42985,1.84074 c -0.38409,1.64476 -8.64464,56.8856 -8.64464,57.80935 0,0.20728 -33.49882,0.37687 -74.44183,0.37687 -40.94301,0 -74.44184,-0.21092 -74.44184,-0.4687 z"
     id="path3742" />
  <path
     style="fill:#002b00;stroke:#006f68;stroke-width:0.82386;stroke-linecap:round"
     d="m 327.1639,265.90742 v -5.3074 l 5.09798,-0.24489 5.09797,-0.24489 7.22321,-13.98355 c 3.97276,-7.69095 7.23097,-14.26117 7.24045,-14.60047 0.009,-0.33931 -7.75596,-0.61693 -17.25655,-0.61693 -9.50059,0 -17.27379,-0.24793 -17.27379,-0.55096 0,-1.55397 62.0998,-121.9315 62.6275,-121.40044 0.34078,0.34296 13.74927,26.34917 29.79664,57.79159 l 29.17703,57.16804 4.59307,0.24668 4.59306,0.2467 v 5.3056 5.3056 h -5.34664 c -5.15473,0 -5.34665,-0.0738 -5.34665,-2.0564 v -2.05641 h -15.26595 c -11.98869,0 -15.13539,0.22074 -14.65782,1.02821 0.33445,0.5655 3.14073,4.82226 6.23615,9.45945 l 5.62805,8.43127 -31.48138,0.0514 -31.48138,0.0514 -4.90605,5.7065 -4.90603,5.70649 h -4.34778 -4.34778 v 4.93538 4.93536 h -5.34665 -5.34666 z"
     id="path3744" />
  <path
     style="fill:#005500;stroke:#006f68;stroke-width:0.82386;stroke-linecap:round"
     d="m 494.37486,312.84977 -37.19158,-41.75905 8.60958,-17.20427 c 4.73528,-9.46234 8.60959,-17.57779 8.60959,-18.03431 0,-0.49686 -2.9716,-0.83004 -7.40305,-0.83004 h -7.40306 v -5.34665 -5.34665 h 10.50497 10.50496 l 7.77181,-15.61277 c 4.2745,-8.58702 8.05082,-15.33376 8.39182,-14.99275 0.34101,0.341 14.49025,27.81769 31.44277,61.0593 l 30.82277,60.43929 -17.50242,0.41128 -17.50241,0.41128 3.98195,18.09636 c 2.19007,9.953 3.88564,18.62998 3.76792,19.2822 -0.11772,0.65221 -16.95024,-17.60574 -37.40562,-40.57322 z"
     id="path3746" />
  <path
     style="fill:#2b1100;stroke:#006f68;stroke-width:0.82386;stroke-linecap:round"
     d="m 234.21443,496.59673 v -37.01528 h 5.34665 5.34665 v 37.01528 37.01528 h -5.34665 -5.34665 z"
     id="path3748" />
  <path
     style="fill:#2b1100;stroke:#006f68;stroke-width:0.82386;stroke-linecap:round"
     d="m 128.46633,510.58028 c 0,-12.89366 0.11371,-18.16833 0.25268,-11.7215 0.13899,6.44682 0.13899,16.99617 0,23.443 -0.13897,6.44683 -0.25268,1.17215 -0.25268,-11.7215 z"
     id="path3750" />
  <path
     style="fill:#2b1100;stroke:#006f68;stroke-width:0.82386;stroke-linecap:round"
     d="m 304.13218,460.40401 v -73.20799 h 93.36076 93.36075 v 73.20799 73.208 h -26.32198 -26.32197 v -26.97172 c 0,-29.17574 -0.3463,-32.23387 -4.60084,-40.6298 -2.59749,-5.1259 -9.02459,-12.08681 -14.20967,-15.38987 -12.58761,-8.01869 -31.24376,-8.08318 -43.60542,-0.15072 -5.32233,3.41533 -11.78154,10.33943 -14.31825,15.34877 -4.46824,8.8236 -4.69944,10.81047 -4.69944,40.38681 v 27.40653 h -26.32197 -26.32197 z"
     id="path3752" />
  <path
     style="fill:#000000;stroke:#006f68;stroke-width:0.82386;stroke-linecap:round"
     d="m 263.93196,373.28618 c 0.6207,-0.86427 23.11253,-26.21973 49.98185,-56.34547 l 48.85331,-54.77407 h 34.74944 34.74945 l 20.4513,23.02006 c 11.95442,13.45594 21.04936,23.02491 21.89078,23.03173 0.85975,0.007 1.43949,0.63861 1.43949,1.56839 0,0.88012 11.92635,14.95457 27.43991,32.38221 15.09196,16.95401 27.69899,31.24468 28.01565,31.75702 0.42782,0.69224 -34.0121,0.93155 -134.062,0.93155 -132.37799,0 -134.61876,-0.0264 -133.50918,-1.57142 z"
     id="path3754" />
  <path
     style="fill:#666666;stroke:#006f68;stroke-width:0.82386;stroke-linecap:round"
     d="m 309.75073,113.40377 c -11.93812,-3.21528 -19.41688,-12.82117 -19.50706,-25.05531 -0.10907,-14.79523 10.5511,-25.3302 26.48141,-26.17038 l 6.78614,-0.3579 v -2.603 c 0,-3.83912 2.15196,-11.42847 4.62357,-16.30594 2.95226,-5.82601 11.15215,-13.82988 17.39943,-16.9835 15.73217,-7.94157 32.31219,-6.08292 45.75544,5.12928 l 4.02993,3.36111 1.25199,-2.03014 c 0.6886,-1.11657 4.06384,-4.80628 7.50054,-8.19934 9.79998,-9.67553 20.37078,-14.04027 34.18645,-14.11578 14.3555,-0.0785 26.5573,4.5737 36.75692,14.01421 9.3537,8.65756 14.92796,19.08879 16.02706,29.99181 0.65484,6.49596 1.51631,8.76571 3.3355,8.78822 5.60884,0.0694 14.59959,7.5566 17.89685,14.90389 2.0176,4.49578 2.22668,5.77695 1.91424,11.72961 -0.56917,10.84434 -5.38854,17.90691 -15.43475,22.61897 l -4.56162,2.13957 h -48.53114 -48.53115 l -8.36401,-16.42882 c -4.60021,-9.03585 -8.67189,-16.52278 -9.04818,-16.63761 -0.37629,-0.11483 -4.55827,7.37067 -9.29329,16.63446 l -8.60912,16.84325 -23.88207,-0.0541 c -17.80896,-0.0404 -24.97579,-0.34872 -28.18308,-1.21254 z"
     id="path3756" />
  <path
     style="fill:#9dac93;stroke:#006f68;stroke-width:0.205964;stroke-linecap:round"
     d=""
     id="path4211" />
  <path
     style="fill:#ccff00;stroke:#006f68;stroke-width:0.205964;stroke-linecap:round"
     d=""
     id="path4219" />
  <g
     id="g4238"
     transform="translate(508.35612,-45.8077)">
    <g
       id="g4084"
       transform="matrix(0.19982886,0.02498243,-0.02498243,0.19982886,-189.32461,469.61866)" />
    <g
       id="g4207"
       transform="translate(16.451234,-9.6651001)">
      <path
         d="m 233.34,267.08 v 13.355 h 33.562 c -0.20313,1.6289 -0.33594,3.2656 -0.33594,4.9297 0,22.004 17.922,39.906 39.957,39.906 22.004,0 39.906,-17.902 39.906,-39.906 0,-1.6641 -0.14062,-3.3047 -0.33594,-4.9297 h 9.4297 c -0.20312,1.625 -0.33594,3.2656 -0.33594,4.9297 0,22.004 17.902,39.906 39.906,39.906 22.004,0 39.906,-17.902 39.906,-39.906 0,-1.6641 -0.14062,-3.3047 -0.33594,-4.9297 h 33.59 v -26.711 h -234.91 z m 149.54,13.355 h 24.398 c 0.57031,1.3906 0.99219,3 0.99219,4.9297 0,7.2734 -5.918,13.195 -13.188,13.195 -7.2734,0 -13.188,-5.918 -13.188,-13.195 -0.004,-1.9297 0.41016,-3.5352 0.98438,-4.9297 z m -88.609,0 h 24.449 c 0.57031,1.3906 0.99219,3 0.99219,4.9297 0,7.2734 -5.918,13.195 -13.188,13.195 -7.2969,0 -13.242,-5.918 -13.242,-13.195 -0.004,-1.9297 0.41797,-3.5352 0.98828,-4.9297 z"
         id="path3998"
         transform="matrix(0.19982886,0.02498243,-0.02498243,0.19982886,-189.32461,469.61866)" />
      <g
         id="g4194">
        <g
           id="g4199">
          <path
             d="m 555.41,212.96 c -13.113,0 -23.973,9.8281 -25.609,22.5 h -10.504 l -10.898,0.28125 v -149.42 c 0,-27.262 -22.176,-49.438 -49.438,-49.438 h -216.34 c -27.262,0 -49.441,22.176 -49.441,49.438 v 149.14 h -22.973 c -1.6367,-12.68 -12.488,-22.5 -25.609,-22.5 l -20.77,-0.004 c -14.238,0 -25.82,11.582 -25.82,25.824 v 62.316 c 0,14.234 11.582,25.816 25.82,25.816 h 20.77 c 13.234,0 24.176,-10.008 25.648,-22.848 h 22.934 v 35.168 h -33.578 v 88.316 c 0,52.695 42.875,95.562 95.562,95.562 h 159.27 c 52.695,0 95.57,-42.867 95.57,-95.562 l 0.004,-88.316 h -1.6055 v -35.168 h 21.363 c 1.4766,12.84 12.414,22.848 25.648,22.848 h 20.77 c 14.242,0 25.82,-11.582 25.82,-25.816 v -62.316 c 0,-14.234 -11.582,-25.82 -25.82,-25.82 z m -371.09,64.395 h -40.617 v 22.848 h -18.992 v -60.527 h 18.984 v 22.5 h 23.648 v 0.33984 h 16.969 v 14.84 z m 35.562,-191.04 c 0,-12.527 10.199,-22.727 22.727,-22.727 h 216.34 c 12.527,0 22.727,10.199 22.727,22.727 v 26.375 l -22.23,22.125 -35.453,-35.336 -35.449,35.332 -35.43,-35.32 -35.508,35.332 -35.453,-35.336 -35.441,35.332 -26.824,-26.73 z m 0,59.469 26.824,26.734 35.441,-35.332 35.441,35.32 35.5,-35.332 35.453,35.336 35.449,-35.332 35.43,35.32 22.254,-22.141 v 188.86 l -261.79,0.004 z m 263.4,281.77 c 0,37.961 -30.891,68.852 -68.859,68.852 h -159.27 c -37.961,0 -68.852,-30.891 -68.852,-68.852 l -0.004,-61.605 h 296.98 z m 92.004,-127.35 h -18.984 v -22.848 h -40.617 v -14.828 l 16.969,-0.33984 h 23.648 v -22.5 h 18.984 z"
             id="path3996"
             transform="matrix(0.19982886,0.02498243,-0.02498243,0.19982886,-189.32461,469.61866)" />
          <path
             style="fill:#225500;stroke:#006f68;stroke-width:0.13731;stroke-linecap:round"
             d="m -170.48145,728.14315 c -19.00118,-2.37982 -34.55751,-4.33178 -34.56963,-4.33769 -0.0421,-0.0205 6.36499,-51.09191 6.41602,-51.14294 0.0282,-0.0282 1.40812,1.69867 3.06643,3.83754 1.67656,2.16242 3.09018,3.8642 3.18422,3.83332 0.093,-0.0306 2.50315,-1.86735 5.35585,-4.08177 l 5.18673,-4.02622 4.1011,5.25738 c 2.44854,3.13889 4.1704,5.23078 4.27308,5.19138 0.0946,-0.0363 2.48422,-1.85734 5.31029,-4.04675 2.82608,-2.18941 5.16694,-3.98074 5.20191,-3.98074 0.035,0 1.89211,2.3443 4.12695,5.20956 2.23485,2.86525 4.12061,5.20955 4.19058,5.20955 0.07,0 2.47959,-1.82433 5.3547,-4.05408 2.87512,-2.22974 5.27313,-4.00339 5.3289,-3.94144 0.0558,0.062 1.87568,2.39525 4.04423,5.1851 2.16854,2.78986 3.98473,5.11921 4.03597,5.17634 0.0512,0.0571 1.53937,-1.01347 3.30696,-2.37911 2.52325,-1.94946 3.22219,-2.42837 3.2529,-2.22882 0.0321,0.20863 -5.81735,47.48733 -6.08249,49.1623 -0.0577,0.36461 -0.14765,0.50973 -0.30925,0.49907 -0.12532,-0.008 -15.77428,-1.96215 -34.77545,-4.34198 z m 16.51978,-2.38245 c 4.37095,-1.09926 7.53278,-4.80464 8.02393,-9.40331 0.087,-0.81471 0.10938,-0.85654 0.45506,-0.85086 0.19995,0.003 2.19889,0.23862 4.44208,0.52296 2.2432,0.28434 4.08119,0.48215 4.08444,0.43958 0.003,-0.0426 0.2077,-1.66546 0.45433,-3.60642 0.3978,-3.13065 0.42421,-3.53555 0.23401,-3.58685 -0.46556,-0.12559 -62.38587,-7.805 -62.44622,-7.74464 -0.0774,0.0774 -0.89981,6.32615 -0.89981,6.83671 v 0.35706 l 4.39238,0.53853 4.39237,0.53852 -0.1082,0.96425 c -0.43477,3.87469 0.74664,7.16942 3.46,9.64928 3.64519,3.3315 9.38184,3.66925 13.41683,0.78994 2.48173,-1.77092 4.10245,-4.49005 4.48241,-7.52029 0.0776,-0.61908 0.15873,-1.14319 0.18025,-1.16471 0.0388,-0.0388 2.18207,0.23779 2.2333,0.2882 0.0147,0.0145 -0.0301,0.27131 -0.0995,0.5708 -0.20188,0.87076 -0.15422,3.27289 0.0864,4.35609 0.29718,1.33765 1.22738,3.26476 2.09753,4.34551 2.68532,3.33522 6.918,4.73603 11.11843,3.67965 z"
             id="path4191"
             transform="scale(0.75000002)" />
        </g>
      </g>
    </g>
    <path
       style="fill:#22241c;stroke:#006f68;stroke-width:0.274619;stroke-linecap:round"
       d="m -116.56044,659.12551 c -2.20123,-2.80754 -4.18018,-5.09182 -4.39766,-5.07618 -0.21747,0.0156 -2.65559,1.78532 -5.41804,3.93262 -2.76245,2.14731 -5.11627,3.8002 -5.23072,3.6731 -0.11444,-0.12711 -1.96286,-2.48286 -4.1076,-5.23502 -2.14474,-2.75215 -3.95412,-5.00391 -4.02083,-5.00391 -0.0667,0 -2.42798,1.78907 -5.24726,3.97571 -2.81927,2.18665 -5.20469,3.97572 -5.30092,3.97572 -0.0962,0 -2.00259,-2.34236 -4.23635,-5.20524 l -4.06138,-5.20524 -0.97988,0.74065 c -0.53893,0.40736 -2.93448,2.26544 -5.32344,4.12907 -2.38897,1.86362 -4.37182,3.3483 -4.40635,3.29929 -0.0345,-0.049 -1.40162,-1.81166 -3.03799,-3.91698 l -2.97523,-3.82786 0.34667,-3.16392 c 0.19066,-1.74015 0.52684,-3.59576 0.74707,-4.12357 0.89243,-2.13889 3.16223,-3.6524 5.44109,-3.62816 2.51546,0.0268 58.64,7.17805 59.83902,7.62458 1.55903,0.58059 3.24785,2.52272 3.59043,4.12894 0.23505,1.10209 -0.15475,6.26175 -0.64216,8.5001 -0.10249,0.47068 -3.13604,3.03785 -6.15008,5.20458 -0.35688,0.25656 -1.07658,-0.52325 -4.42839,-4.79828 z"
       id="path4209"
       transform="scale(0.75000002)" />
    <path
       style="fill:#9dac93;stroke:#006f68;stroke-width:0.274619;stroke-linecap:round"
       d="m -205.59114,697.55227 c -0.64913,-0.0581 -1.23975,-0.26079 -1.3125,-0.45036 -0.15327,-0.39944 1.67265,-15.20779 1.90367,-15.43881 0.0849,-0.0849 1.11582,-0.0465 2.29099,0.0853 l 2.13669,0.2396 -0.0158,0.95966 c -0.009,0.52781 -0.11377,1.89527 -0.23356,3.03879 l -0.2178,2.07914 2.83834,0.33199 c 1.56109,0.18259 3.51695,0.44518 4.34637,0.58354 0.82942,0.13835 1.97113,0.3237 2.53715,0.41189 l 1.02911,0.16033 -0.17302,1.56399 c -0.0952,0.86018 -0.26032,1.66087 -0.36704,1.7793 -0.10671,0.11843 -2.5278,-0.0817 -5.38019,-0.4448 -2.85239,-0.36306 -5.22544,-0.62632 -5.27344,-0.58502 -0.048,0.0413 -0.20368,0.98177 -0.34595,2.08992 -0.51647,4.02299 -0.42453,3.80302 -1.56705,3.74914 -0.55868,-0.0263 -1.54688,-0.0955 -2.19601,-0.15359 z"
       id="path4213"
       transform="scale(0.75000002)" />
    <path
       style="fill:#9dac93;stroke:#006f68;stroke-width:0.274619;stroke-linecap:round"
       d="m -90.074834,711.95197 c -1.055621,-0.145 -1.951577,-0.29516 -1.991014,-0.3337 -0.06841,-0.0669 0.338153,-3.47203 0.626119,-5.24403 l 0.136342,-0.83898 -5.478834,-0.65142 c -5.229499,-0.62178 -5.473619,-0.67718 -5.364269,-1.21743 0.063,-0.3113 0.19117,-1.15613 0.28479,-1.87741 0.168,-1.29432 0.18159,-1.30958 1.04317,-1.17125 0.48013,0.0771 2.600336,0.33194 4.711577,0.56635 2.111242,0.23441 4.155157,0.48866 4.542033,0.56501 l 0.703412,0.1388 0.343367,-2.95391 c 0.188852,-1.62465 0.383786,-2.99433 0.433187,-3.04373 0.08345,-0.0834 4.633846,0.48141 4.700554,0.5835 0.01659,0.0254 -0.411516,3.59344 -0.951338,7.92903 -0.811647,6.51875 -1.054028,7.87682 -1.40064,7.84784 -0.23053,-0.0193 -1.282835,-0.15368 -2.338456,-0.29867 z"
       id="path4215"
       transform="scale(0.75000002)" />
    <path
       style="fill:#ccff00;stroke:#006f68;stroke-width:0.274619;stroke-linecap:round"
       d="m -135.9817,705.49912 c -1.3099,-0.66793 -2.06344,-1.79246 -2.06344,-3.07932 0,-0.5876 0.0892,-1.15762 0.19833,-1.26669 0.10907,-0.10908 1.61772,-0.0401 3.35256,0.15324 3.0802,0.34331 3.15424,0.36752 3.15424,1.03138 0,1.27854 -0.85125,2.58412 -2.03561,3.12203 -1.38253,0.62792 -1.44985,0.62894 -2.60608,0.0394 z"
       id="path4217"
       transform="scale(0.75000002)" />
    <path
       style="fill:#ccff00;stroke:#006f68;stroke-width:0.274619;stroke-linecap:round"
       d="m -159.8343,702.4771 c -1.48573,-0.81659 -2.39575,-3.03206 -1.69782,-4.13337 0.32574,-0.514 6.31999,0.14129 6.54013,0.71497 0.0805,0.20974 0.003,0.85943 -0.17196,1.44374 -0.58922,1.96664 -2.90414,2.9454 -4.67035,1.97466 z"
       id="path4221"
       transform="scale(0.75000002)" />
    <path
       style="fill:#22280b;stroke:#006f68;stroke-width:0.274619;stroke-linecap:round"
       d="m -157.93617,756.56471 c -24.1779,-3.0601 -24.92531,-3.19571 -28.17512,-5.11235 -2.00145,-1.1804 -5.15374,-4.33541 -6.3388,-6.34428 -2.2511,-3.81598 -2.95642,-7.53796 -2.37494,-12.53254 0.76691,-6.58719 1.86907,-15.22155 1.95571,-15.32108 0.13012,-0.14949 78.35534,9.61916 78.57769,9.81267 0.2608,0.22696 -1.88777,17.11089 -2.40858,18.92721 -1.75595,6.12381 -6.89765,11.13078 -13.08538,12.74247 -3.4896,0.90893 -4.30341,0.84613 -28.15058,-2.1721 z"
       id="path4223"
       transform="scale(0.75000002)" />
  </g>
  <text
     xml:space="preserve"
     id="text5207"
     style="font-style:normal;font-variant:normal;font-weight:normal;font-stretch:normal;font-size:30px;line-height:1.25;font-family:'Neuzeit Office SR Pro';-inkscape-font-specification:'Neuzeit Office SR Pro';white-space:pre;shape-inside:url(#rect5209);fill:#000000;fill-opacity:1;stroke:none;" />
  <text
     xml:space="preserve"
     id="text5213"
     style="font-style:normal;font-weight:normal;font-size:30px;line-height:1.25;font-family:sans-serif;white-space:pre;shape-inside:url(#rect5215);fill:#000000;fill-opacity:1;stroke:none;" />
  <text
     xml:space="preserve"
     id="text5219"
     style="font-size:72px;line-height:0;font-family:'Neuzeit Office SR Pro';-inkscape-font-specification:'Neuzeit Office SR Pro';white-space:pre;shape-inside:url(#rect5221);"
     transform="matrix(1.4604236,0,-0.39131932,1.4604236,-86.155936,-204.02081)"><tspan
       x="537.43359"
       y="495.23672"><tspan
         style="line-height:1.85;letter-spacing:0px;fill:#44aa00">Fo'REST</tspan></tspan></text>
</svg>
